%TF.GenerationSoftware,KiCad,Pcbnew,8.0.1*%
%TF.CreationDate,2024-06-21T13:32:41-03:00*%
%TF.ProjectId,bycicle-speedometer-v2,62796369-636c-4652-9d73-706565646f6d,rev?*%
%TF.SameCoordinates,Original*%
%TF.FileFunction,Copper,L1,Top*%
%TF.FilePolarity,Positive*%
%FSLAX46Y46*%
G04 Gerber Fmt 4.6, Leading zero omitted, Abs format (unit mm)*
G04 Created by KiCad (PCBNEW 8.0.1) date 2024-06-21 13:32:41*
%MOMM*%
%LPD*%
G01*
G04 APERTURE LIST*
G04 Aperture macros list*
%AMRoundRect*
0 Rectangle with rounded corners*
0 $1 Rounding radius*
0 $2 $3 $4 $5 $6 $7 $8 $9 X,Y pos of 4 corners*
0 Add a 4 corners polygon primitive as box body*
4,1,4,$2,$3,$4,$5,$6,$7,$8,$9,$2,$3,0*
0 Add four circle primitives for the rounded corners*
1,1,$1+$1,$2,$3*
1,1,$1+$1,$4,$5*
1,1,$1+$1,$6,$7*
1,1,$1+$1,$8,$9*
0 Add four rect primitives between the rounded corners*
20,1,$1+$1,$2,$3,$4,$5,0*
20,1,$1+$1,$4,$5,$6,$7,0*
20,1,$1+$1,$6,$7,$8,$9,0*
20,1,$1+$1,$8,$9,$2,$3,0*%
G04 Aperture macros list end*
%TA.AperFunction,ComponentPad*%
%ADD10R,1.800000X1.800000*%
%TD*%
%TA.AperFunction,ComponentPad*%
%ADD11C,1.800000*%
%TD*%
%TA.AperFunction,SMDPad,CuDef*%
%ADD12RoundRect,0.250000X0.262500X0.450000X-0.262500X0.450000X-0.262500X-0.450000X0.262500X-0.450000X0*%
%TD*%
%TA.AperFunction,ComponentPad*%
%ADD13C,2.000000*%
%TD*%
%TA.AperFunction,ComponentPad*%
%ADD14R,2.600000X2.600000*%
%TD*%
%TA.AperFunction,ComponentPad*%
%ADD15C,2.600000*%
%TD*%
%TA.AperFunction,ComponentPad*%
%ADD16R,1.700000X1.700000*%
%TD*%
%TA.AperFunction,ComponentPad*%
%ADD17O,1.700000X1.700000*%
%TD*%
%TA.AperFunction,ComponentPad*%
%ADD18R,2.500000X1.100000*%
%TD*%
%TA.AperFunction,ComponentPad*%
%ADD19O,2.500000X1.100000*%
%TD*%
%TA.AperFunction,ComponentPad*%
%ADD20O,1.100000X2.500000*%
%TD*%
%TA.AperFunction,SMDPad,CuDef*%
%ADD21RoundRect,0.250000X-0.262500X-0.450000X0.262500X-0.450000X0.262500X0.450000X-0.262500X0.450000X0*%
%TD*%
%TA.AperFunction,SMDPad,CuDef*%
%ADD22RoundRect,0.250000X-0.250000X-0.475000X0.250000X-0.475000X0.250000X0.475000X-0.250000X0.475000X0*%
%TD*%
%TA.AperFunction,ViaPad*%
%ADD23C,0.600000*%
%TD*%
%TA.AperFunction,Conductor*%
%ADD24C,0.254000*%
%TD*%
%TA.AperFunction,Conductor*%
%ADD25C,0.508000*%
%TD*%
G04 APERTURE END LIST*
D10*
%TO.P,D3,1,K*%
%TO.N,Net-(D3-K)*%
X179324000Y-92456000D03*
D11*
%TO.P,D3,2,A*%
%TO.N,Net-(D1-K)*%
X181864000Y-92456000D03*
%TD*%
D12*
%TO.P,R7,1*%
%TO.N,led_a*%
X174545000Y-78740000D03*
%TO.P,R7,2*%
%TO.N,Net-(D1-A)*%
X172720000Y-78740000D03*
%TD*%
D10*
%TO.P,D4,1,K*%
%TO.N,Net-(D1-K)*%
X188976000Y-92456000D03*
D11*
%TO.P,D4,2,A*%
%TO.N,Net-(D3-K)*%
X191516000Y-92456000D03*
%TD*%
D13*
%TO.P,SW1,1,1*%
%TO.N,GND*%
X173430000Y-74894000D03*
X166930000Y-74894000D03*
%TO.P,SW1,2,2*%
%TO.N,Net-(U1-REST)*%
X173430000Y-70394000D03*
X166930000Y-70394000D03*
%TD*%
D14*
%TO.P,J1,1,Pin_1*%
%TO.N,VCC*%
X208280000Y-80264000D03*
D15*
%TO.P,J1,2,Pin_2*%
%TO.N,GND*%
X208280000Y-85344000D03*
%TD*%
D16*
%TO.P,J4,1,Pin_1*%
%TO.N,3V3*%
X199460000Y-71000000D03*
D17*
%TO.P,J4,2,Pin_2*%
%TO.N,GND*%
X202000000Y-71000000D03*
%TO.P,J4,3,Pin_3*%
%TO.N,VCC*%
X204540000Y-71000000D03*
%TD*%
D18*
%TO.P,U1,1,REST*%
%TO.N,Net-(U1-REST)*%
X177238500Y-68872000D03*
D19*
%TO.P,U1,2,ADC*%
%TO.N,unconnected-(U1-ADC-Pad2)*%
X177238500Y-70872000D03*
%TO.P,U1,3,CH_PD*%
%TO.N,Net-(U1-CH_PD)*%
X177238500Y-72872000D03*
%TO.P,U1,4,GPIO16*%
%TO.N,Sensor*%
X177238500Y-74872000D03*
%TO.P,U1,5,GPIO14*%
%TO.N,led_a*%
X177238500Y-76872000D03*
%TO.P,U1,6,GPIO12*%
%TO.N,led_b*%
X177238500Y-78872000D03*
%TO.P,U1,7,GPIO13*%
%TO.N,led_c*%
X177238500Y-80872000D03*
%TO.P,U1,8,VCC*%
%TO.N,3V3*%
X177238500Y-82872000D03*
%TO.P,U1,9,GND*%
%TO.N,GND*%
X192638500Y-82872000D03*
%TO.P,U1,10,GPIO15*%
%TO.N,Net-(U1-GPIO15)*%
X192538500Y-80872000D03*
%TO.P,U1,11,GPIO2*%
%TO.N,unconnected-(U1-GPIO2-Pad11)*%
X192638500Y-78872000D03*
%TO.P,U1,12,GPIO0*%
%TO.N,Prog*%
X192638500Y-76872000D03*
%TO.P,U1,13,GPIO4*%
%TO.N,unconnected-(U1-GPIO4-Pad13)*%
X192638500Y-74872000D03*
%TO.P,U1,14,GPIO5*%
%TO.N,unconnected-(U1-GPIO5-Pad14)*%
X192638500Y-72872000D03*
%TO.P,U1,15,RXD*%
%TO.N,unconnected-(U1-RXD-Pad15)*%
X192638500Y-70872000D03*
%TO.P,U1,16,TXD*%
%TO.N,unconnected-(U1-TXD-Pad16)*%
X192638500Y-68872000D03*
D20*
%TO.P,U1,17,CS0*%
%TO.N,unconnected-(U1-CS0-Pad17)*%
X179928500Y-84572000D03*
%TO.P,U1,18,MISO*%
%TO.N,unconnected-(U1-MISO-Pad18)*%
X181928500Y-84572000D03*
%TO.P,U1,19,GPIO9*%
%TO.N,unconnected-(U1-GPIO9-Pad19)*%
X183928500Y-84572000D03*
%TO.P,U1,20,GPIO10*%
%TO.N,unconnected-(U1-GPIO10-Pad20)*%
X185928500Y-84572000D03*
%TO.P,U1,21,MOSI*%
%TO.N,unconnected-(U1-MOSI-Pad21)*%
X187928500Y-84572000D03*
%TO.P,U1,22,SCLK*%
%TO.N,unconnected-(U1-SCLK-Pad22)*%
X189928500Y-84572000D03*
%TD*%
D10*
%TO.P,D6,1,K*%
%TO.N,Net-(D1-A)*%
X208280000Y-92456000D03*
D11*
%TO.P,D6,2,A*%
%TO.N,Net-(D3-K)*%
X210820000Y-92456000D03*
%TD*%
D12*
%TO.P,R9,1*%
%TO.N,led_c*%
X174545000Y-83820000D03*
%TO.P,R9,2*%
%TO.N,Net-(D3-K)*%
X172720000Y-83820000D03*
%TD*%
%TO.P,R8,1*%
%TO.N,led_b*%
X174545000Y-81280000D03*
%TO.P,R8,2*%
%TO.N,Net-(D1-K)*%
X172720000Y-81280000D03*
%TD*%
D21*
%TO.P,R4,1*%
%TO.N,Net-(J3-Pin_2)*%
X169164000Y-81280000D03*
%TO.P,R4,2*%
%TO.N,Sensor*%
X170989000Y-81280000D03*
%TD*%
D12*
%TO.P,R6,1*%
%TO.N,GND*%
X170989000Y-83820000D03*
%TO.P,R6,2*%
%TO.N,Net-(J3-Pin_2)*%
X169164000Y-83820000D03*
%TD*%
D16*
%TO.P,J2,1,Pin_1*%
%TO.N,GND*%
X197104000Y-82555000D03*
D17*
%TO.P,J2,2,Pin_2*%
%TO.N,Prog*%
X197104000Y-80015000D03*
%TD*%
D10*
%TO.P,D2,1,K*%
%TO.N,Net-(D1-A)*%
X169672000Y-92456000D03*
D11*
%TO.P,D2,2,A*%
%TO.N,Net-(D1-K)*%
X172212000Y-92456000D03*
%TD*%
D10*
%TO.P,D5,1,K*%
%TO.N,Net-(D3-K)*%
X198628000Y-92456000D03*
D11*
%TO.P,D5,2,A*%
%TO.N,Net-(D1-A)*%
X201168000Y-92456000D03*
%TD*%
D14*
%TO.P,J3,1,Pin_1*%
%TO.N,3V3*%
X162255000Y-80259000D03*
D15*
%TO.P,J3,2,Pin_2*%
%TO.N,Net-(J3-Pin_2)*%
X162255000Y-85339000D03*
%TD*%
D22*
%TO.P,C2,1*%
%TO.N,Sensor*%
X169060500Y-78740000D03*
%TO.P,C2,2*%
%TO.N,GND*%
X170960500Y-78740000D03*
%TD*%
D10*
%TO.P,D1,1,K*%
%TO.N,Net-(D1-K)*%
X160020000Y-92456000D03*
D11*
%TO.P,D1,2,A*%
%TO.N,Net-(D1-A)*%
X162560000Y-92456000D03*
%TD*%
D23*
%TO.N,GND*%
X171000000Y-84000000D03*
X171000000Y-79000000D03*
%TO.N,Net-(D1-A)*%
X172000000Y-80000000D03*
%TO.N,Sensor*%
X168000000Y-78000000D03*
%TO.N,3V3*%
X183000000Y-82000000D03*
X184000000Y-80000000D03*
%TD*%
D24*
%TO.N,Prog*%
X197104000Y-80015000D02*
X193961000Y-76872000D01*
X193961000Y-76872000D02*
X191938500Y-76872000D01*
%TO.N,Net-(D1-A)*%
X171216000Y-94000000D02*
X169672000Y-92456000D01*
X201168000Y-92456000D02*
X199624000Y-94000000D01*
X199624000Y-94000000D02*
X171216000Y-94000000D01*
X172000000Y-79460000D02*
X172000000Y-80000000D01*
X172720000Y-78740000D02*
X172000000Y-79460000D01*
%TO.N,Net-(D1-K)*%
X171880500Y-92124500D02*
X172212000Y-92456000D01*
X172720000Y-81280000D02*
X171880500Y-82119500D01*
X171880500Y-82119500D02*
X171880500Y-92124500D01*
%TO.N,Net-(D3-K)*%
X179324000Y-91324000D02*
X179324000Y-92456000D01*
X172720000Y-84720000D02*
X179324000Y-91324000D01*
X172720000Y-83820000D02*
X172720000Y-84720000D01*
%TO.N,led_c*%
X176793000Y-80872000D02*
X177938500Y-80872000D01*
X174545000Y-83120000D02*
X176793000Y-80872000D01*
X174545000Y-83820000D02*
X174545000Y-83120000D01*
%TO.N,led_b*%
X176953000Y-78872000D02*
X177938500Y-78872000D01*
X174545000Y-81280000D02*
X176953000Y-78872000D01*
%TO.N,led_a*%
X176413000Y-76872000D02*
X177938500Y-76872000D01*
X174545000Y-78740000D02*
X176413000Y-76872000D01*
%TO.N,3V3*%
X176000000Y-76000000D02*
X176005000Y-75995000D01*
X178995000Y-75995000D02*
X183000000Y-80000000D01*
X162255000Y-80259000D02*
X165278735Y-77235265D01*
X183000000Y-80000000D02*
X184000000Y-80000000D01*
X173764735Y-77235265D02*
X175000000Y-76000000D01*
X165278735Y-77235265D02*
X173764735Y-77235265D01*
X175000000Y-76000000D02*
X176000000Y-76000000D01*
X176005000Y-75995000D02*
X178995000Y-75995000D01*
%TO.N,Sensor*%
X168740000Y-78740000D02*
X168000000Y-78000000D01*
X169060500Y-78740000D02*
X168740000Y-78740000D01*
X170989000Y-80668500D02*
X169060500Y-78740000D01*
X170989000Y-81280000D02*
X170989000Y-80668500D01*
%TO.N,Net-(J3-Pin_2)*%
X169164000Y-83820000D02*
X169164000Y-81280000D01*
X167645000Y-85339000D02*
X169164000Y-83820000D01*
X162255000Y-85339000D02*
X167645000Y-85339000D01*
%TO.N,Net-(U1-REST)*%
X174952000Y-68872000D02*
X177938500Y-68872000D01*
X173430000Y-70394000D02*
X174952000Y-68872000D01*
D25*
%TO.N,3V3*%
X177938500Y-82872000D02*
X177732500Y-82666000D01*
X178810500Y-82000000D02*
X183000000Y-82000000D01*
X177938500Y-82872000D02*
X178810500Y-82000000D01*
X184000000Y-75390630D02*
X184000000Y-80000000D01*
X191522630Y-67868000D02*
X184000000Y-75390630D01*
X196328000Y-67868000D02*
X191522630Y-67868000D01*
X199460000Y-71000000D02*
X196328000Y-67868000D01*
%TO.N,VCC*%
X204540000Y-76524000D02*
X204540000Y-71000000D01*
X208280000Y-80264000D02*
X204540000Y-76524000D01*
%TD*%
M02*
