M48
; DRILL file {KiCad 8.0.1} date 2024-06-21T13:32:56-0300
; FORMAT={-:-/ absolute / inch / decimal}
; #@! TF.CreationDate,2024-06-21T13:32:56-03:00
; #@! TF.GenerationSoftware,Kicad,Pcbnew,8.0.1
; #@! TF.FileFunction,Plated,1,2,PTH
FMAT,2
INCH
; #@! TA.AperFunction,Plated,PTH,ViaDrill
T1C0.0118
; #@! TA.AperFunction,Plated,PTH,ComponentDrill
T2C0.0256
; #@! TA.AperFunction,Plated,PTH,ComponentDrill
T3C0.0354
; #@! TA.AperFunction,Plated,PTH,ComponentDrill
T4C0.0394
; #@! TA.AperFunction,Plated,PTH,ComponentDrill
T5C0.0433
; #@! TA.AperFunction,Plated,PTH,ComponentDrill
T6C0.0512
%
G90
G05
T1
X6.6142Y-3.0709
X6.7323Y-3.1102
X6.7323Y-3.3071
X6.7717Y-3.1496
X7.2047Y-3.2283
X7.2441Y-3.1496
T2
X7.0055Y-2.7115
X7.0055Y-2.7902
X7.0055Y-2.869
X7.0055Y-2.9477
X7.0055Y-3.0265
X7.0055Y-3.1052
X7.0055Y-3.1839
X7.0055Y-3.2627
X7.0838Y-3.302
X7.1625Y-3.302
X7.2413Y-3.302
X7.32Y-3.302
X7.3988Y-3.302
X7.4775Y-3.302
X7.5566Y-2.7115
X7.5566Y-2.7902
X7.5566Y-2.869
X7.5566Y-2.9477
X7.5566Y-3.0265
X7.5566Y-3.1052
X7.5566Y-3.1839
X7.5566Y-3.2627
T3
X6.3Y-3.64
X6.4Y-3.64
X6.68Y-3.64
X6.78Y-3.64
X7.06Y-3.64
X7.16Y-3.64
X7.44Y-3.64
X7.54Y-3.64
X7.82Y-3.64
X7.92Y-3.64
X8.2Y-3.64
X8.3Y-3.64
T4
X7.76Y-3.1502
X7.76Y-3.2502
X7.8528Y-2.7953
X7.9528Y-2.7953
X8.0528Y-2.7953
T5
X6.572Y-2.7714
X6.572Y-2.9486
X6.828Y-2.7714
X6.828Y-2.9486
T6
X6.388Y-3.1598
X6.388Y-3.3598
X8.2Y-3.16
X8.2Y-3.36
M30
