%TF.GenerationSoftware,KiCad,Pcbnew,8.0.1*%
%TF.CreationDate,2024-06-21T13:32:41-03:00*%
%TF.ProjectId,bycicle-speedometer-v2,62796369-636c-4652-9d73-706565646f6d,rev?*%
%TF.SameCoordinates,Original*%
%TF.FileFunction,Copper,L2,Bot*%
%TF.FilePolarity,Positive*%
%FSLAX46Y46*%
G04 Gerber Fmt 4.6, Leading zero omitted, Abs format (unit mm)*
G04 Created by KiCad (PCBNEW 8.0.1) date 2024-06-21 13:32:41*
%MOMM*%
%LPD*%
G01*
G04 APERTURE LIST*
G04 Aperture macros list*
%AMRoundRect*
0 Rectangle with rounded corners*
0 $1 Rounding radius*
0 $2 $3 $4 $5 $6 $7 $8 $9 X,Y pos of 4 corners*
0 Add a 4 corners polygon primitive as box body*
4,1,4,$2,$3,$4,$5,$6,$7,$8,$9,$2,$3,0*
0 Add four circle primitives for the rounded corners*
1,1,$1+$1,$2,$3*
1,1,$1+$1,$4,$5*
1,1,$1+$1,$6,$7*
1,1,$1+$1,$8,$9*
0 Add four rect primitives between the rounded corners*
20,1,$1+$1,$2,$3,$4,$5,0*
20,1,$1+$1,$4,$5,$6,$7,0*
20,1,$1+$1,$6,$7,$8,$9,0*
20,1,$1+$1,$8,$9,$2,$3,0*%
G04 Aperture macros list end*
%TA.AperFunction,ComponentPad*%
%ADD10R,1.800000X1.800000*%
%TD*%
%TA.AperFunction,ComponentPad*%
%ADD11C,1.800000*%
%TD*%
%TA.AperFunction,ComponentPad*%
%ADD12C,2.000000*%
%TD*%
%TA.AperFunction,ComponentPad*%
%ADD13R,2.600000X2.600000*%
%TD*%
%TA.AperFunction,ComponentPad*%
%ADD14C,2.600000*%
%TD*%
%TA.AperFunction,ComponentPad*%
%ADD15R,1.700000X1.700000*%
%TD*%
%TA.AperFunction,ComponentPad*%
%ADD16O,1.700000X1.700000*%
%TD*%
%TA.AperFunction,ComponentPad*%
%ADD17R,2.500000X1.100000*%
%TD*%
%TA.AperFunction,ComponentPad*%
%ADD18O,2.500000X1.100000*%
%TD*%
%TA.AperFunction,ComponentPad*%
%ADD19O,1.100000X2.500000*%
%TD*%
%TA.AperFunction,SMDPad,CuDef*%
%ADD20RoundRect,0.250000X-0.250000X-0.475000X0.250000X-0.475000X0.250000X0.475000X-0.250000X0.475000X0*%
%TD*%
%TA.AperFunction,SMDPad,CuDef*%
%ADD21RoundRect,0.250000X-0.262500X-0.450000X0.262500X-0.450000X0.262500X0.450000X-0.262500X0.450000X0*%
%TD*%
%TA.AperFunction,SMDPad,CuDef*%
%ADD22RoundRect,0.250000X0.262500X0.450000X-0.262500X0.450000X-0.262500X-0.450000X0.262500X-0.450000X0*%
%TD*%
%TA.AperFunction,ViaPad*%
%ADD23C,0.600000*%
%TD*%
%TA.AperFunction,Conductor*%
%ADD24C,0.254000*%
%TD*%
%TA.AperFunction,Conductor*%
%ADD25C,0.508000*%
%TD*%
G04 APERTURE END LIST*
D10*
%TO.P,D3,1,K*%
%TO.N,Net-(D3-K)*%
X179324000Y-92456000D03*
D11*
%TO.P,D3,2,A*%
%TO.N,Net-(D1-K)*%
X181864000Y-92456000D03*
%TD*%
D10*
%TO.P,D4,1,K*%
%TO.N,Net-(D1-K)*%
X188976000Y-92456000D03*
D11*
%TO.P,D4,2,A*%
%TO.N,Net-(D3-K)*%
X191516000Y-92456000D03*
%TD*%
D12*
%TO.P,SW1,1,1*%
%TO.N,GND*%
X173430000Y-74894000D03*
X166930000Y-74894000D03*
%TO.P,SW1,2,2*%
%TO.N,Net-(U1-REST)*%
X173430000Y-70394000D03*
X166930000Y-70394000D03*
%TD*%
D13*
%TO.P,J1,1,Pin_1*%
%TO.N,VCC*%
X208280000Y-80264000D03*
D14*
%TO.P,J1,2,Pin_2*%
%TO.N,GND*%
X208280000Y-85344000D03*
%TD*%
D15*
%TO.P,J4,1,Pin_1*%
%TO.N,3V3*%
X199460000Y-71000000D03*
D16*
%TO.P,J4,2,Pin_2*%
%TO.N,GND*%
X202000000Y-71000000D03*
%TO.P,J4,3,Pin_3*%
%TO.N,VCC*%
X204540000Y-71000000D03*
%TD*%
D17*
%TO.P,U1,1,REST*%
%TO.N,Net-(U1-REST)*%
X177238500Y-68872000D03*
D18*
%TO.P,U1,2,ADC*%
%TO.N,unconnected-(U1-ADC-Pad2)*%
X177238500Y-70872000D03*
%TO.P,U1,3,CH_PD*%
%TO.N,Net-(U1-CH_PD)*%
X177238500Y-72872000D03*
%TO.P,U1,4,GPIO16*%
%TO.N,Sensor*%
X177238500Y-74872000D03*
%TO.P,U1,5,GPIO14*%
%TO.N,led_a*%
X177238500Y-76872000D03*
%TO.P,U1,6,GPIO12*%
%TO.N,led_b*%
X177238500Y-78872000D03*
%TO.P,U1,7,GPIO13*%
%TO.N,led_c*%
X177238500Y-80872000D03*
%TO.P,U1,8,VCC*%
%TO.N,3V3*%
X177238500Y-82872000D03*
%TO.P,U1,9,GND*%
%TO.N,GND*%
X192638500Y-82872000D03*
%TO.P,U1,10,GPIO15*%
%TO.N,Net-(U1-GPIO15)*%
X192538500Y-80872000D03*
%TO.P,U1,11,GPIO2*%
%TO.N,unconnected-(U1-GPIO2-Pad11)*%
X192638500Y-78872000D03*
%TO.P,U1,12,GPIO0*%
%TO.N,Prog*%
X192638500Y-76872000D03*
%TO.P,U1,13,GPIO4*%
%TO.N,unconnected-(U1-GPIO4-Pad13)*%
X192638500Y-74872000D03*
%TO.P,U1,14,GPIO5*%
%TO.N,unconnected-(U1-GPIO5-Pad14)*%
X192638500Y-72872000D03*
%TO.P,U1,15,RXD*%
%TO.N,unconnected-(U1-RXD-Pad15)*%
X192638500Y-70872000D03*
%TO.P,U1,16,TXD*%
%TO.N,unconnected-(U1-TXD-Pad16)*%
X192638500Y-68872000D03*
D19*
%TO.P,U1,17,CS0*%
%TO.N,unconnected-(U1-CS0-Pad17)*%
X179928500Y-84572000D03*
%TO.P,U1,18,MISO*%
%TO.N,unconnected-(U1-MISO-Pad18)*%
X181928500Y-84572000D03*
%TO.P,U1,19,GPIO9*%
%TO.N,unconnected-(U1-GPIO9-Pad19)*%
X183928500Y-84572000D03*
%TO.P,U1,20,GPIO10*%
%TO.N,unconnected-(U1-GPIO10-Pad20)*%
X185928500Y-84572000D03*
%TO.P,U1,21,MOSI*%
%TO.N,unconnected-(U1-MOSI-Pad21)*%
X187928500Y-84572000D03*
%TO.P,U1,22,SCLK*%
%TO.N,unconnected-(U1-SCLK-Pad22)*%
X189928500Y-84572000D03*
%TD*%
D10*
%TO.P,D6,1,K*%
%TO.N,Net-(D1-A)*%
X208280000Y-92456000D03*
D11*
%TO.P,D6,2,A*%
%TO.N,Net-(D3-K)*%
X210820000Y-92456000D03*
%TD*%
D15*
%TO.P,J2,1,Pin_1*%
%TO.N,GND*%
X197104000Y-82555000D03*
D16*
%TO.P,J2,2,Pin_2*%
%TO.N,Prog*%
X197104000Y-80015000D03*
%TD*%
D10*
%TO.P,D2,1,K*%
%TO.N,Net-(D1-A)*%
X169672000Y-92456000D03*
D11*
%TO.P,D2,2,A*%
%TO.N,Net-(D1-K)*%
X172212000Y-92456000D03*
%TD*%
D10*
%TO.P,D5,1,K*%
%TO.N,Net-(D3-K)*%
X198628000Y-92456000D03*
D11*
%TO.P,D5,2,A*%
%TO.N,Net-(D1-A)*%
X201168000Y-92456000D03*
%TD*%
D13*
%TO.P,J3,1,Pin_1*%
%TO.N,3V3*%
X162255000Y-80259000D03*
D14*
%TO.P,J3,2,Pin_2*%
%TO.N,Net-(J3-Pin_2)*%
X162255000Y-85339000D03*
%TD*%
D10*
%TO.P,D1,1,K*%
%TO.N,Net-(D1-K)*%
X160020000Y-92456000D03*
D11*
%TO.P,D1,2,A*%
%TO.N,Net-(D1-A)*%
X162560000Y-92456000D03*
%TD*%
D20*
%TO.P,C1,1*%
%TO.N,3V3*%
X184000000Y-82000000D03*
%TO.P,C1,2*%
%TO.N,GND*%
X185900000Y-82000000D03*
%TD*%
D21*
%TO.P,R3,1*%
%TO.N,3V3*%
X188081500Y-77000000D03*
%TO.P,R3,2*%
%TO.N,Prog*%
X189906500Y-77000000D03*
%TD*%
D22*
%TO.P,R1,1*%
%TO.N,3V3*%
X181525000Y-73000000D03*
%TO.P,R1,2*%
%TO.N,Net-(U1-CH_PD)*%
X179700000Y-73000000D03*
%TD*%
%TO.P,R5,1*%
%TO.N,Net-(U1-GPIO15)*%
X190112500Y-81000000D03*
%TO.P,R5,2*%
%TO.N,GND*%
X188287500Y-81000000D03*
%TD*%
%TO.P,R2,1*%
%TO.N,3V3*%
X181612500Y-69000000D03*
%TO.P,R2,2*%
%TO.N,Net-(U1-REST)*%
X179787500Y-69000000D03*
%TD*%
D23*
%TO.N,GND*%
X171000000Y-84000000D03*
X171000000Y-79000000D03*
%TO.N,Net-(D1-A)*%
X172000000Y-80000000D03*
%TO.N,Sensor*%
X168000000Y-78000000D03*
%TO.N,3V3*%
X183000000Y-82000000D03*
X184000000Y-80000000D03*
%TD*%
D24*
%TO.N,Sensor*%
X174000000Y-77000000D02*
X176128000Y-74872000D01*
X169000000Y-77000000D02*
X174000000Y-77000000D01*
X168000000Y-78000000D02*
X169000000Y-77000000D01*
X176128000Y-74872000D02*
X177938500Y-74872000D01*
%TO.N,Net-(D1-A)*%
X208280000Y-92456000D02*
X201168000Y-92456000D01*
%TO.N,Net-(D3-K)*%
X200084000Y-91000000D02*
X198628000Y-92456000D01*
X209278000Y-91000000D02*
X200084000Y-91000000D01*
X210734000Y-92456000D02*
X209278000Y-91000000D01*
X210820000Y-92456000D02*
X210734000Y-92456000D01*
X191516000Y-92456000D02*
X198628000Y-92456000D01*
X180551000Y-91229000D02*
X179324000Y-92456000D01*
X190289000Y-91229000D02*
X180551000Y-91229000D01*
X191516000Y-92456000D02*
X190289000Y-91229000D01*
%TO.N,Net-(D1-K)*%
X181864000Y-92456000D02*
X188976000Y-92456000D01*
X180320000Y-94000000D02*
X181864000Y-92456000D01*
X173756000Y-94000000D02*
X180320000Y-94000000D01*
X172212000Y-92456000D02*
X173756000Y-94000000D01*
X172212000Y-92788000D02*
X172212000Y-92456000D01*
X171000000Y-94000000D02*
X172212000Y-92788000D01*
X161564000Y-94000000D02*
X171000000Y-94000000D01*
X160020000Y-92456000D02*
X161564000Y-94000000D01*
%TO.N,Net-(D1-A)*%
X169672000Y-92456000D02*
X162560000Y-92456000D01*
X169672000Y-82328000D02*
X169672000Y-92456000D01*
X172000000Y-80000000D02*
X169672000Y-82328000D01*
%TO.N,Net-(U1-GPIO15)*%
X191810500Y-81000000D02*
X191938500Y-80872000D01*
X190112500Y-81000000D02*
X191810500Y-81000000D01*
%TO.N,Prog*%
X191810500Y-77000000D02*
X191938500Y-76872000D01*
X189906500Y-77000000D02*
X191810500Y-77000000D01*
%TO.N,Net-(U1-CH_PD)*%
X178066500Y-73000000D02*
X177938500Y-72872000D01*
X179700000Y-73000000D02*
X178066500Y-73000000D01*
%TO.N,Net-(U1-REST)*%
X178066500Y-69000000D02*
X177938500Y-68872000D01*
X179787500Y-69000000D02*
X178066500Y-69000000D01*
%TO.N,3V3*%
X181525000Y-77525000D02*
X184000000Y-80000000D01*
X181525000Y-73000000D02*
X181525000Y-77525000D01*
X181612500Y-72912500D02*
X181525000Y-73000000D01*
X181612500Y-69000000D02*
X181612500Y-72912500D01*
X185081500Y-80000000D02*
X184000000Y-80000000D01*
X188081500Y-77000000D02*
X185081500Y-80000000D01*
D25*
X184000000Y-82000000D02*
X183000000Y-82000000D01*
X184000000Y-82000000D02*
X184000000Y-80000000D01*
%TD*%
%TA.AperFunction,Conductor*%
%TO.N,GND*%
G36*
X158068381Y-69019685D02*
G01*
X158114136Y-69072489D01*
X158124080Y-69141647D01*
X158100805Y-69198047D01*
X157988875Y-69348394D01*
X157988871Y-69348400D01*
X157814113Y-69651091D01*
X157814107Y-69651104D01*
X157675674Y-69972027D01*
X157575430Y-70306865D01*
X157575428Y-70306872D01*
X157514739Y-70651061D01*
X157514738Y-70651072D01*
X157494415Y-70999996D01*
X157494415Y-71000003D01*
X157514738Y-71348927D01*
X157514739Y-71348938D01*
X157575428Y-71693127D01*
X157575430Y-71693134D01*
X157675674Y-72027972D01*
X157814107Y-72348895D01*
X157814113Y-72348908D01*
X157988870Y-72651597D01*
X158197584Y-72931949D01*
X158197589Y-72931955D01*
X158242114Y-72979148D01*
X158437442Y-73186183D01*
X158605857Y-73327500D01*
X158705186Y-73410847D01*
X158705194Y-73410853D01*
X158997203Y-73602911D01*
X158997207Y-73602913D01*
X159309549Y-73759777D01*
X159637989Y-73879319D01*
X159978086Y-73959923D01*
X160325241Y-74000500D01*
X160325248Y-74000500D01*
X160674752Y-74000500D01*
X160674759Y-74000500D01*
X161021914Y-73959923D01*
X161362011Y-73879319D01*
X161690451Y-73759777D01*
X162002793Y-73602913D01*
X162294811Y-73410849D01*
X162562558Y-73186183D01*
X162789235Y-72945920D01*
X175787999Y-72945920D01*
X175816840Y-73090907D01*
X175816843Y-73090917D01*
X175873412Y-73227488D01*
X175873419Y-73227501D01*
X175955548Y-73350415D01*
X175955551Y-73350419D01*
X176060080Y-73454948D01*
X176060084Y-73454951D01*
X176182998Y-73537080D01*
X176183011Y-73537087D01*
X176319582Y-73593656D01*
X176319587Y-73593658D01*
X176319591Y-73593658D01*
X176319592Y-73593659D01*
X176464579Y-73622500D01*
X176464582Y-73622500D01*
X178012420Y-73622500D01*
X178110896Y-73602911D01*
X178157413Y-73593658D01*
X178293995Y-73537084D01*
X178416916Y-73454951D01*
X178461020Y-73410847D01*
X178508049Y-73363819D01*
X178569372Y-73330334D01*
X178595730Y-73327500D01*
X178863000Y-73327500D01*
X178930039Y-73347185D01*
X178975794Y-73399989D01*
X178987000Y-73451500D01*
X178987000Y-73504269D01*
X178989853Y-73534699D01*
X178989853Y-73534701D01*
X179034706Y-73662880D01*
X179034707Y-73662882D01*
X179115350Y-73772150D01*
X179224618Y-73852793D01*
X179267345Y-73867744D01*
X179352799Y-73897646D01*
X179383230Y-73900500D01*
X179383234Y-73900500D01*
X180016770Y-73900500D01*
X180047199Y-73897646D01*
X180047201Y-73897646D01*
X180111290Y-73875219D01*
X180175382Y-73852793D01*
X180284650Y-73772150D01*
X180365293Y-73662882D01*
X180389516Y-73593656D01*
X180410146Y-73534701D01*
X180410146Y-73534699D01*
X180413000Y-73504269D01*
X180413000Y-72495730D01*
X180410146Y-72465300D01*
X180410146Y-72465298D01*
X180365293Y-72337119D01*
X180365292Y-72337117D01*
X180284650Y-72227850D01*
X180175382Y-72147207D01*
X180175380Y-72147206D01*
X180047200Y-72102353D01*
X180016770Y-72099500D01*
X180016766Y-72099500D01*
X179383234Y-72099500D01*
X179383230Y-72099500D01*
X179352800Y-72102353D01*
X179352798Y-72102353D01*
X179224619Y-72147206D01*
X179224617Y-72147207D01*
X179115350Y-72227850D01*
X179034707Y-72337117D01*
X179034706Y-72337119D01*
X178989853Y-72465298D01*
X178989853Y-72465300D01*
X178987000Y-72495730D01*
X178987000Y-72548500D01*
X178967315Y-72615539D01*
X178914511Y-72661294D01*
X178863000Y-72672500D01*
X178751053Y-72672500D01*
X178684014Y-72652815D01*
X178638259Y-72600011D01*
X178636492Y-72595952D01*
X178603587Y-72516511D01*
X178603580Y-72516498D01*
X178521451Y-72393584D01*
X178521448Y-72393580D01*
X178416919Y-72289051D01*
X178416915Y-72289048D01*
X178294001Y-72206919D01*
X178293988Y-72206912D01*
X178157417Y-72150343D01*
X178157407Y-72150340D01*
X178012420Y-72121500D01*
X178012418Y-72121500D01*
X176464582Y-72121500D01*
X176464580Y-72121500D01*
X176319592Y-72150340D01*
X176319582Y-72150343D01*
X176183011Y-72206912D01*
X176182998Y-72206919D01*
X176060084Y-72289048D01*
X176060080Y-72289051D01*
X175955551Y-72393580D01*
X175955548Y-72393584D01*
X175873419Y-72516498D01*
X175873412Y-72516511D01*
X175816843Y-72653082D01*
X175816840Y-72653092D01*
X175788000Y-72798079D01*
X175788000Y-72798082D01*
X175788000Y-72945918D01*
X175788000Y-72945920D01*
X175787999Y-72945920D01*
X162789235Y-72945920D01*
X162802412Y-72931953D01*
X163011130Y-72651596D01*
X163185889Y-72348904D01*
X163324326Y-72027971D01*
X163424569Y-71693136D01*
X163427313Y-71677578D01*
X163485260Y-71348938D01*
X163485259Y-71348938D01*
X163485262Y-71348927D01*
X163505585Y-71000000D01*
X163485262Y-70651073D01*
X163476239Y-70599901D01*
X163424571Y-70306872D01*
X163424569Y-70306865D01*
X163424569Y-70306864D01*
X163324326Y-69972029D01*
X163185889Y-69651096D01*
X163065022Y-69441748D01*
X163011128Y-69348400D01*
X163011124Y-69348394D01*
X162899195Y-69198047D01*
X162874951Y-69132519D01*
X162889983Y-69064285D01*
X162939519Y-69015011D01*
X162998658Y-69000000D01*
X166541730Y-69000000D01*
X166608769Y-69019685D01*
X166654524Y-69072489D01*
X166664468Y-69141647D01*
X166635443Y-69205203D01*
X166586525Y-69239625D01*
X166507796Y-69270125D01*
X166392604Y-69314750D01*
X166392595Y-69314754D01*
X166203439Y-69431874D01*
X166203437Y-69431876D01*
X166039020Y-69581761D01*
X165904943Y-69759308D01*
X165904938Y-69759316D01*
X165805775Y-69958461D01*
X165805769Y-69958476D01*
X165744885Y-70172462D01*
X165744884Y-70172464D01*
X165724357Y-70393999D01*
X165724357Y-70394000D01*
X165744884Y-70615535D01*
X165744885Y-70615537D01*
X165805769Y-70829523D01*
X165805775Y-70829538D01*
X165904938Y-71028683D01*
X165904943Y-71028691D01*
X166039020Y-71206238D01*
X166203437Y-71356123D01*
X166203439Y-71356125D01*
X166392595Y-71473245D01*
X166392596Y-71473245D01*
X166392599Y-71473247D01*
X166600060Y-71553618D01*
X166818757Y-71594500D01*
X166818759Y-71594500D01*
X167041241Y-71594500D01*
X167041243Y-71594500D01*
X167259940Y-71553618D01*
X167467401Y-71473247D01*
X167656562Y-71356124D01*
X167820981Y-71206236D01*
X167955058Y-71028689D01*
X168054229Y-70829528D01*
X168115115Y-70615536D01*
X168135643Y-70394000D01*
X168135604Y-70393584D01*
X168115115Y-70172464D01*
X168115114Y-70172462D01*
X168111444Y-70159564D01*
X168054229Y-69958472D01*
X168054224Y-69958461D01*
X167955061Y-69759316D01*
X167955056Y-69759308D01*
X167820979Y-69581761D01*
X167656562Y-69431876D01*
X167656560Y-69431874D01*
X167467404Y-69314754D01*
X167467395Y-69314750D01*
X167373956Y-69278552D01*
X167273475Y-69239625D01*
X167218075Y-69197054D01*
X167194484Y-69131288D01*
X167210195Y-69063207D01*
X167260219Y-69014428D01*
X167318270Y-69000000D01*
X173041730Y-69000000D01*
X173108769Y-69019685D01*
X173154524Y-69072489D01*
X173164468Y-69141647D01*
X173135443Y-69205203D01*
X173086525Y-69239625D01*
X173007796Y-69270125D01*
X172892604Y-69314750D01*
X172892595Y-69314754D01*
X172703439Y-69431874D01*
X172703437Y-69431876D01*
X172539020Y-69581761D01*
X172404943Y-69759308D01*
X172404938Y-69759316D01*
X172305775Y-69958461D01*
X172305769Y-69958476D01*
X172244885Y-70172462D01*
X172244884Y-70172464D01*
X172224357Y-70393999D01*
X172224357Y-70394000D01*
X172244884Y-70615535D01*
X172244885Y-70615537D01*
X172305769Y-70829523D01*
X172305775Y-70829538D01*
X172404938Y-71028683D01*
X172404943Y-71028691D01*
X172539020Y-71206238D01*
X172703437Y-71356123D01*
X172703439Y-71356125D01*
X172892595Y-71473245D01*
X172892596Y-71473245D01*
X172892599Y-71473247D01*
X173100060Y-71553618D01*
X173318757Y-71594500D01*
X173318759Y-71594500D01*
X173541241Y-71594500D01*
X173541243Y-71594500D01*
X173759940Y-71553618D01*
X173967401Y-71473247D01*
X174156562Y-71356124D01*
X174320981Y-71206236D01*
X174455058Y-71028689D01*
X174554229Y-70829528D01*
X174615115Y-70615536D01*
X174635643Y-70394000D01*
X174635604Y-70393584D01*
X174615115Y-70172464D01*
X174615114Y-70172462D01*
X174611444Y-70159564D01*
X174554229Y-69958472D01*
X174554224Y-69958461D01*
X174455061Y-69759316D01*
X174455056Y-69759308D01*
X174320979Y-69581761D01*
X174156562Y-69431876D01*
X174156560Y-69431874D01*
X173967404Y-69314754D01*
X173967395Y-69314750D01*
X173873956Y-69278552D01*
X173773475Y-69239625D01*
X173718075Y-69197054D01*
X173694484Y-69131288D01*
X173710195Y-69063207D01*
X173760219Y-69014428D01*
X173818270Y-69000000D01*
X174876000Y-69000000D01*
X174943039Y-69019685D01*
X174988794Y-69072489D01*
X175000000Y-69124000D01*
X175000000Y-70000000D01*
X176083903Y-70000000D01*
X176150942Y-70019685D01*
X176196697Y-70072489D01*
X176206641Y-70141647D01*
X176177616Y-70205203D01*
X176152794Y-70227102D01*
X176060083Y-70289048D01*
X175955551Y-70393580D01*
X175955548Y-70393584D01*
X175873419Y-70516498D01*
X175873412Y-70516511D01*
X175816843Y-70653082D01*
X175816840Y-70653092D01*
X175788000Y-70798079D01*
X175788000Y-70798082D01*
X175788000Y-70945918D01*
X175788000Y-70945920D01*
X175787999Y-70945920D01*
X175816840Y-71090907D01*
X175816843Y-71090917D01*
X175873412Y-71227488D01*
X175873419Y-71227501D01*
X175955548Y-71350415D01*
X175955551Y-71350419D01*
X176060080Y-71454948D01*
X176060084Y-71454951D01*
X176182998Y-71537080D01*
X176183011Y-71537087D01*
X176302185Y-71586450D01*
X176319587Y-71593658D01*
X176319591Y-71593658D01*
X176319592Y-71593659D01*
X176464579Y-71622500D01*
X176464582Y-71622500D01*
X178012420Y-71622500D01*
X178109962Y-71603096D01*
X178157413Y-71593658D01*
X178293995Y-71537084D01*
X178416916Y-71454951D01*
X178521451Y-71350416D01*
X178603584Y-71227495D01*
X178660158Y-71090913D01*
X178689000Y-70945918D01*
X178689000Y-70798082D01*
X178689000Y-70798079D01*
X178660159Y-70653092D01*
X178660158Y-70653091D01*
X178660158Y-70653087D01*
X178659319Y-70651061D01*
X178603587Y-70516511D01*
X178603580Y-70516498D01*
X178521451Y-70393584D01*
X178521448Y-70393580D01*
X178416916Y-70289048D01*
X178324206Y-70227102D01*
X178279401Y-70173490D01*
X178270694Y-70104165D01*
X178300848Y-70041138D01*
X178360291Y-70004418D01*
X178393097Y-70000000D01*
X181161000Y-70000000D01*
X181228039Y-70019685D01*
X181273794Y-70072489D01*
X181285000Y-70124000D01*
X181285000Y-71979385D01*
X181265315Y-72046424D01*
X181212511Y-72092179D01*
X181184909Y-72099552D01*
X181185170Y-72100744D01*
X181177798Y-72102353D01*
X181049619Y-72147206D01*
X181049617Y-72147207D01*
X180940350Y-72227850D01*
X180859707Y-72337117D01*
X180859706Y-72337119D01*
X180814853Y-72465298D01*
X180814853Y-72465300D01*
X180812000Y-72495730D01*
X180812000Y-73504269D01*
X180814853Y-73534699D01*
X180814853Y-73534701D01*
X180859706Y-73662880D01*
X180859707Y-73662882D01*
X180940350Y-73772150D01*
X181049618Y-73852793D01*
X181114456Y-73875480D01*
X181171230Y-73916201D01*
X181196978Y-73981154D01*
X181197500Y-73992521D01*
X181197500Y-77481884D01*
X181197500Y-77568116D01*
X181219819Y-77651410D01*
X181262934Y-77726088D01*
X181262936Y-77726091D01*
X183458034Y-79921189D01*
X183491519Y-79982512D01*
X183493091Y-79991223D01*
X183514834Y-80142456D01*
X183534294Y-80185065D01*
X183545500Y-80236577D01*
X183545500Y-81053422D01*
X183525815Y-81120461D01*
X183495134Y-81153192D01*
X183427850Y-81202850D01*
X183347207Y-81312117D01*
X183301019Y-81444111D01*
X183260296Y-81500887D01*
X183195343Y-81526633D01*
X183149045Y-81522133D01*
X183071961Y-81499500D01*
X182928039Y-81499500D01*
X182928036Y-81499500D01*
X182789949Y-81540045D01*
X182668873Y-81617856D01*
X182574623Y-81726626D01*
X182574622Y-81726628D01*
X182514834Y-81857543D01*
X182494353Y-82000000D01*
X182514834Y-82142456D01*
X182544274Y-82206919D01*
X182574623Y-82273373D01*
X182668872Y-82382143D01*
X182789947Y-82459953D01*
X182789950Y-82459954D01*
X182789949Y-82459954D01*
X182928036Y-82500499D01*
X182928038Y-82500500D01*
X182928039Y-82500500D01*
X183071961Y-82500500D01*
X183149043Y-82477867D01*
X183218913Y-82477867D01*
X183277691Y-82515641D01*
X183301019Y-82555888D01*
X183335033Y-82653092D01*
X183347207Y-82687882D01*
X183427850Y-82797150D01*
X183537118Y-82877793D01*
X183569163Y-82889006D01*
X183665298Y-82922646D01*
X183667890Y-82923212D01*
X183669618Y-82924157D01*
X183672423Y-82925139D01*
X183672260Y-82925603D01*
X183729185Y-82956748D01*
X183762619Y-83018099D01*
X183757577Y-83087786D01*
X183715659Y-83143685D01*
X183688884Y-83158917D01*
X183573008Y-83206914D01*
X183572998Y-83206919D01*
X183450084Y-83289048D01*
X183450080Y-83289051D01*
X183345551Y-83393580D01*
X183345548Y-83393584D01*
X183263419Y-83516498D01*
X183263412Y-83516511D01*
X183206843Y-83653082D01*
X183206840Y-83653092D01*
X183178000Y-83798079D01*
X183178000Y-83798082D01*
X183178000Y-85345918D01*
X183178000Y-85345920D01*
X183177999Y-85345920D01*
X183206840Y-85490907D01*
X183206843Y-85490917D01*
X183263412Y-85627488D01*
X183263419Y-85627501D01*
X183345548Y-85750415D01*
X183345551Y-85750419D01*
X183450080Y-85854948D01*
X183450084Y-85854951D01*
X183572998Y-85937080D01*
X183573011Y-85937087D01*
X183709582Y-85993656D01*
X183709587Y-85993658D01*
X183709591Y-85993658D01*
X183709592Y-85993659D01*
X183854579Y-86022500D01*
X183854582Y-86022500D01*
X184002420Y-86022500D01*
X184099962Y-86003096D01*
X184147413Y-85993658D01*
X184283995Y-85937084D01*
X184406916Y-85854951D01*
X184511451Y-85750416D01*
X184593584Y-85627495D01*
X184650158Y-85490913D01*
X184679000Y-85345918D01*
X184679000Y-83798082D01*
X184679000Y-83798079D01*
X184650159Y-83653092D01*
X184650158Y-83653091D01*
X184650158Y-83653087D01*
X184647672Y-83647086D01*
X184593587Y-83516511D01*
X184593580Y-83516498D01*
X184511451Y-83393584D01*
X184511448Y-83393580D01*
X184406919Y-83289051D01*
X184406915Y-83289048D01*
X184284001Y-83206919D01*
X184283988Y-83206912D01*
X184180534Y-83164061D01*
X184126130Y-83120220D01*
X184104065Y-83053926D01*
X184121344Y-82986227D01*
X184172481Y-82938616D01*
X184227986Y-82925500D01*
X184304270Y-82925500D01*
X184334699Y-82922646D01*
X184334701Y-82922646D01*
X184398790Y-82900219D01*
X184462882Y-82877793D01*
X184572150Y-82797150D01*
X184652793Y-82687882D01*
X184675158Y-82623964D01*
X184715877Y-82567192D01*
X184780830Y-82541444D01*
X184849392Y-82554900D01*
X184899795Y-82603287D01*
X184909904Y-82625917D01*
X184965642Y-82794121D01*
X184965643Y-82794124D01*
X185057684Y-82943345D01*
X185181654Y-83067315D01*
X185330875Y-83159356D01*
X185337421Y-83162408D01*
X185336405Y-83164586D01*
X185384437Y-83197839D01*
X185411263Y-83262354D01*
X185398952Y-83331130D01*
X185375675Y-83363457D01*
X185345548Y-83393584D01*
X185263419Y-83516498D01*
X185263412Y-83516511D01*
X185206843Y-83653082D01*
X185206840Y-83653092D01*
X185178000Y-83798079D01*
X185178000Y-83798082D01*
X185178000Y-85345918D01*
X185178000Y-85345920D01*
X185177999Y-85345920D01*
X185206840Y-85490907D01*
X185206843Y-85490917D01*
X185263412Y-85627488D01*
X185263419Y-85627501D01*
X185345548Y-85750415D01*
X185345551Y-85750419D01*
X185450080Y-85854948D01*
X185450084Y-85854951D01*
X185572998Y-85937080D01*
X185573011Y-85937087D01*
X185709582Y-85993656D01*
X185709587Y-85993658D01*
X185709591Y-85993658D01*
X185709592Y-85993659D01*
X185854579Y-86022500D01*
X185854582Y-86022500D01*
X186002420Y-86022500D01*
X186099962Y-86003096D01*
X186147413Y-85993658D01*
X186283995Y-85937084D01*
X186406916Y-85854951D01*
X186511451Y-85750416D01*
X186593584Y-85627495D01*
X186650158Y-85490913D01*
X186679000Y-85345920D01*
X187177999Y-85345920D01*
X187206840Y-85490907D01*
X187206843Y-85490917D01*
X187263412Y-85627488D01*
X187263419Y-85627501D01*
X187345548Y-85750415D01*
X187345551Y-85750419D01*
X187450080Y-85854948D01*
X187450084Y-85854951D01*
X187572998Y-85937080D01*
X187573011Y-85937087D01*
X187709582Y-85993656D01*
X187709587Y-85993658D01*
X187709591Y-85993658D01*
X187709592Y-85993659D01*
X187854579Y-86022500D01*
X187854582Y-86022500D01*
X188002420Y-86022500D01*
X188099962Y-86003096D01*
X188147413Y-85993658D01*
X188283995Y-85937084D01*
X188406916Y-85854951D01*
X188511451Y-85750416D01*
X188593584Y-85627495D01*
X188650158Y-85490913D01*
X188679000Y-85345920D01*
X189177999Y-85345920D01*
X189206840Y-85490907D01*
X189206843Y-85490917D01*
X189263412Y-85627488D01*
X189263419Y-85627501D01*
X189345548Y-85750415D01*
X189345551Y-85750419D01*
X189450080Y-85854948D01*
X189450084Y-85854951D01*
X189572998Y-85937080D01*
X189573011Y-85937087D01*
X189709582Y-85993656D01*
X189709587Y-85993658D01*
X189709591Y-85993658D01*
X189709592Y-85993659D01*
X189854579Y-86022500D01*
X189854582Y-86022500D01*
X190002420Y-86022500D01*
X190099962Y-86003096D01*
X190147413Y-85993658D01*
X190283995Y-85937084D01*
X190406916Y-85854951D01*
X190511451Y-85750416D01*
X190593584Y-85627495D01*
X190650158Y-85490913D01*
X190679000Y-85345918D01*
X190679000Y-85344004D01*
X206474953Y-85344004D01*
X206495113Y-85613026D01*
X206495113Y-85613028D01*
X206555142Y-85876033D01*
X206555148Y-85876052D01*
X206653709Y-86127181D01*
X206653708Y-86127181D01*
X206788602Y-86360822D01*
X206842294Y-86428151D01*
X206842295Y-86428151D01*
X207678958Y-85591488D01*
X207703978Y-85651890D01*
X207775112Y-85758351D01*
X207865649Y-85848888D01*
X207972110Y-85920022D01*
X208032510Y-85945041D01*
X207194848Y-86782702D01*
X207377483Y-86907220D01*
X207377485Y-86907221D01*
X207620539Y-87024269D01*
X207620537Y-87024269D01*
X207878337Y-87103790D01*
X207878343Y-87103792D01*
X208145101Y-87143999D01*
X208145110Y-87144000D01*
X208414890Y-87144000D01*
X208414898Y-87143999D01*
X208681656Y-87103792D01*
X208681662Y-87103790D01*
X208939461Y-87024269D01*
X209182521Y-86907218D01*
X209365150Y-86782702D01*
X208527488Y-85945041D01*
X208587890Y-85920022D01*
X208694351Y-85848888D01*
X208784888Y-85758351D01*
X208856022Y-85651890D01*
X208881041Y-85591488D01*
X209717703Y-86428151D01*
X209717704Y-86428150D01*
X209771393Y-86360828D01*
X209771400Y-86360817D01*
X209906290Y-86127181D01*
X210004851Y-85876052D01*
X210004857Y-85876033D01*
X210064886Y-85613028D01*
X210064886Y-85613026D01*
X210085047Y-85344004D01*
X210085047Y-85343995D01*
X210064886Y-85074973D01*
X210064886Y-85074971D01*
X210004857Y-84811966D01*
X210004851Y-84811947D01*
X209906290Y-84560818D01*
X209906291Y-84560818D01*
X209771397Y-84327177D01*
X209717704Y-84259847D01*
X208881041Y-85096510D01*
X208856022Y-85036110D01*
X208784888Y-84929649D01*
X208694351Y-84839112D01*
X208587890Y-84767978D01*
X208527488Y-84742958D01*
X209365150Y-83905296D01*
X209182517Y-83780779D01*
X209182516Y-83780778D01*
X208939460Y-83663730D01*
X208939462Y-83663730D01*
X208681662Y-83584209D01*
X208681656Y-83584207D01*
X208414898Y-83544000D01*
X208145101Y-83544000D01*
X207878343Y-83584207D01*
X207878337Y-83584209D01*
X207620538Y-83663730D01*
X207377485Y-83780778D01*
X207377476Y-83780783D01*
X207194848Y-83905296D01*
X208032511Y-84742958D01*
X207972110Y-84767978D01*
X207865649Y-84839112D01*
X207775112Y-84929649D01*
X207703978Y-85036110D01*
X207678958Y-85096511D01*
X206842295Y-84259848D01*
X206788600Y-84327180D01*
X206653709Y-84560818D01*
X206555148Y-84811947D01*
X206555142Y-84811966D01*
X206495113Y-85074971D01*
X206495113Y-85074973D01*
X206474953Y-85343995D01*
X206474953Y-85344004D01*
X190679000Y-85344004D01*
X190679000Y-83798082D01*
X190679000Y-83798079D01*
X190650159Y-83653092D01*
X190650158Y-83653091D01*
X190650158Y-83653087D01*
X190647672Y-83647086D01*
X190593587Y-83516511D01*
X190593580Y-83516498D01*
X190511451Y-83393584D01*
X190511448Y-83393580D01*
X190406919Y-83289051D01*
X190406915Y-83289048D01*
X190284001Y-83206919D01*
X190283988Y-83206912D01*
X190147417Y-83150343D01*
X190147407Y-83150340D01*
X190002420Y-83121500D01*
X190002418Y-83121500D01*
X189854582Y-83121500D01*
X189854580Y-83121500D01*
X189709592Y-83150340D01*
X189709582Y-83150343D01*
X189573011Y-83206912D01*
X189572998Y-83206919D01*
X189450084Y-83289048D01*
X189450080Y-83289051D01*
X189345551Y-83393580D01*
X189345548Y-83393584D01*
X189263419Y-83516498D01*
X189263412Y-83516511D01*
X189206843Y-83653082D01*
X189206840Y-83653092D01*
X189178000Y-83798079D01*
X189178000Y-83798082D01*
X189178000Y-85345918D01*
X189178000Y-85345920D01*
X189177999Y-85345920D01*
X188679000Y-85345920D01*
X188679000Y-85345918D01*
X188679000Y-83798082D01*
X188679000Y-83798079D01*
X188650159Y-83653092D01*
X188650158Y-83653091D01*
X188650158Y-83653087D01*
X188647672Y-83647086D01*
X188593587Y-83516511D01*
X188593580Y-83516498D01*
X188511451Y-83393584D01*
X188511448Y-83393580D01*
X188406919Y-83289051D01*
X188406915Y-83289048D01*
X188284001Y-83206919D01*
X188283988Y-83206912D01*
X188147417Y-83150343D01*
X188147407Y-83150340D01*
X188002420Y-83121500D01*
X188002418Y-83121500D01*
X187854582Y-83121500D01*
X187854580Y-83121500D01*
X187709592Y-83150340D01*
X187709582Y-83150343D01*
X187573011Y-83206912D01*
X187572998Y-83206919D01*
X187450084Y-83289048D01*
X187450080Y-83289051D01*
X187345551Y-83393580D01*
X187345548Y-83393584D01*
X187263419Y-83516498D01*
X187263412Y-83516511D01*
X187206843Y-83653082D01*
X187206840Y-83653092D01*
X187178000Y-83798079D01*
X187178000Y-83798082D01*
X187178000Y-85345918D01*
X187178000Y-85345920D01*
X187177999Y-85345920D01*
X186679000Y-85345920D01*
X186679000Y-85345918D01*
X186679000Y-83798082D01*
X186679000Y-83798079D01*
X186650159Y-83653092D01*
X186650158Y-83653091D01*
X186650158Y-83653087D01*
X186647672Y-83647086D01*
X186593587Y-83516511D01*
X186593580Y-83516498D01*
X186511451Y-83393584D01*
X186511448Y-83393580D01*
X186461324Y-83343456D01*
X186427839Y-83282133D01*
X186432823Y-83212441D01*
X186474695Y-83156508D01*
X186483909Y-83150236D01*
X186618343Y-83067317D01*
X186742315Y-82943345D01*
X186834356Y-82794124D01*
X186834358Y-82794119D01*
X186889505Y-82627697D01*
X186889506Y-82627690D01*
X186899999Y-82524986D01*
X186900000Y-82524973D01*
X186900000Y-82250000D01*
X185774000Y-82250000D01*
X185706961Y-82230315D01*
X185661206Y-82177511D01*
X185650000Y-82126000D01*
X185650000Y-80775000D01*
X186150000Y-80775000D01*
X186150000Y-81750000D01*
X186899999Y-81750000D01*
X186899999Y-81475028D01*
X186899998Y-81475013D01*
X186889505Y-81372302D01*
X186848978Y-81250000D01*
X187275001Y-81250000D01*
X187275001Y-81499986D01*
X187285494Y-81602697D01*
X187340641Y-81769119D01*
X187340643Y-81769124D01*
X187432684Y-81918345D01*
X187556654Y-82042315D01*
X187705875Y-82134356D01*
X187705880Y-82134358D01*
X187872302Y-82189505D01*
X187872309Y-82189506D01*
X187975019Y-82199999D01*
X188037499Y-82199998D01*
X188037500Y-82199998D01*
X188037500Y-81250000D01*
X187275001Y-81250000D01*
X186848978Y-81250000D01*
X186834358Y-81205880D01*
X186834356Y-81205875D01*
X186742315Y-81056654D01*
X186618345Y-80932684D01*
X186469124Y-80840643D01*
X186469119Y-80840641D01*
X186302697Y-80785494D01*
X186302690Y-80785493D01*
X186199986Y-80775000D01*
X186150000Y-80775000D01*
X185650000Y-80775000D01*
X185649999Y-80774999D01*
X185600029Y-80775000D01*
X185600011Y-80775001D01*
X185497302Y-80785494D01*
X185330880Y-80840641D01*
X185330875Y-80840643D01*
X185181654Y-80932684D01*
X185057684Y-81056654D01*
X184965643Y-81205875D01*
X184965641Y-81205880D01*
X184909905Y-81374082D01*
X184870132Y-81431527D01*
X184805617Y-81458350D01*
X184736841Y-81446035D01*
X184685641Y-81398492D01*
X184675158Y-81376033D01*
X184665063Y-81347185D01*
X184652793Y-81312118D01*
X184572150Y-81202850D01*
X184529551Y-81171410D01*
X184504866Y-81153192D01*
X184462615Y-81097544D01*
X184454500Y-81053422D01*
X184454500Y-80750000D01*
X187275000Y-80750000D01*
X188037500Y-80750000D01*
X188037500Y-79800000D01*
X188537500Y-79800000D01*
X188537500Y-82199999D01*
X188599972Y-82199999D01*
X188599986Y-82199998D01*
X188702697Y-82189505D01*
X188869119Y-82134358D01*
X188869124Y-82134356D01*
X189018345Y-82042315D01*
X189142315Y-81918345D01*
X189234356Y-81769124D01*
X189234359Y-81769117D01*
X189249300Y-81724028D01*
X189289072Y-81666583D01*
X189353587Y-81639759D01*
X189422363Y-81652073D01*
X189466775Y-81689396D01*
X189527850Y-81772150D01*
X189637118Y-81852793D01*
X189679845Y-81867744D01*
X189765299Y-81897646D01*
X189795730Y-81900500D01*
X189795734Y-81900500D01*
X190429270Y-81900500D01*
X190459699Y-81897646D01*
X190459701Y-81897646D01*
X190523790Y-81875219D01*
X190587882Y-81852793D01*
X190697150Y-81772150D01*
X190777793Y-81662882D01*
X190805482Y-81583752D01*
X190822646Y-81534701D01*
X190822646Y-81534699D01*
X190825500Y-81504269D01*
X190825500Y-81451500D01*
X190845185Y-81384461D01*
X190897989Y-81338706D01*
X190949500Y-81327500D01*
X191181270Y-81327500D01*
X191248309Y-81347185D01*
X191268951Y-81363819D01*
X191360080Y-81454948D01*
X191360084Y-81454951D01*
X191482998Y-81537080D01*
X191483011Y-81537087D01*
X191619379Y-81593572D01*
X191619587Y-81593658D01*
X191657766Y-81601252D01*
X191689896Y-81607644D01*
X191751807Y-81640029D01*
X191786382Y-81700745D01*
X191782642Y-81770514D01*
X191741775Y-81827186D01*
X191689897Y-81850878D01*
X191632231Y-81862348D01*
X191632225Y-81862350D01*
X191441141Y-81941500D01*
X191441131Y-81941505D01*
X191269164Y-82056410D01*
X191269160Y-82056413D01*
X191122913Y-82202660D01*
X191122910Y-82202664D01*
X191008005Y-82374631D01*
X191008000Y-82374641D01*
X190928851Y-82565723D01*
X190928850Y-82565725D01*
X190917657Y-82622000D01*
X191728882Y-82622000D01*
X191678436Y-82672446D01*
X191635649Y-82746555D01*
X191613500Y-82829213D01*
X191613500Y-82914787D01*
X191635649Y-82997445D01*
X191678436Y-83071554D01*
X191728882Y-83122000D01*
X190917657Y-83122000D01*
X190928850Y-83178274D01*
X190928851Y-83178276D01*
X191008000Y-83369358D01*
X191008005Y-83369368D01*
X191122910Y-83541335D01*
X191122913Y-83541339D01*
X191269160Y-83687586D01*
X191269164Y-83687589D01*
X191441131Y-83802494D01*
X191441141Y-83802499D01*
X191632225Y-83881649D01*
X191632233Y-83881651D01*
X191835079Y-83921999D01*
X191835083Y-83922000D01*
X192388500Y-83922000D01*
X192388500Y-83122000D01*
X192888500Y-83122000D01*
X192888500Y-83922000D01*
X193441917Y-83922000D01*
X193441920Y-83921999D01*
X193644766Y-83881651D01*
X193644774Y-83881649D01*
X193835858Y-83802499D01*
X193835868Y-83802494D01*
X194007835Y-83687589D01*
X194007839Y-83687586D01*
X194154086Y-83541339D01*
X194154089Y-83541335D01*
X194213217Y-83452844D01*
X195754000Y-83452844D01*
X195760401Y-83512372D01*
X195760403Y-83512379D01*
X195810645Y-83647086D01*
X195810649Y-83647093D01*
X195896809Y-83762187D01*
X195896812Y-83762190D01*
X196011906Y-83848350D01*
X196011913Y-83848354D01*
X196146620Y-83898596D01*
X196146627Y-83898598D01*
X196206155Y-83904999D01*
X196206172Y-83905000D01*
X196854000Y-83905000D01*
X196854000Y-82988012D01*
X196911007Y-83020925D01*
X197038174Y-83055000D01*
X197169826Y-83055000D01*
X197296993Y-83020925D01*
X197354000Y-82988012D01*
X197354000Y-83905000D01*
X198001828Y-83905000D01*
X198001844Y-83904999D01*
X198061372Y-83898598D01*
X198061379Y-83898596D01*
X198196086Y-83848354D01*
X198196093Y-83848350D01*
X198311187Y-83762190D01*
X198311190Y-83762187D01*
X198397350Y-83647093D01*
X198397354Y-83647086D01*
X198447596Y-83512379D01*
X198447598Y-83512372D01*
X198453999Y-83452844D01*
X198454000Y-83452827D01*
X198454000Y-82805000D01*
X197537012Y-82805000D01*
X197569925Y-82747993D01*
X197604000Y-82620826D01*
X197604000Y-82489174D01*
X197569925Y-82362007D01*
X197537012Y-82305000D01*
X198454000Y-82305000D01*
X198454000Y-81657172D01*
X198453999Y-81657155D01*
X198447598Y-81597627D01*
X198447596Y-81597620D01*
X198442424Y-81583752D01*
X206779500Y-81583752D01*
X206791131Y-81642229D01*
X206791132Y-81642230D01*
X206835447Y-81708552D01*
X206901769Y-81752867D01*
X206901770Y-81752868D01*
X206960247Y-81764499D01*
X206960250Y-81764500D01*
X206960252Y-81764500D01*
X209599750Y-81764500D01*
X209599751Y-81764499D01*
X209624890Y-81759499D01*
X209658229Y-81752868D01*
X209658229Y-81752867D01*
X209658231Y-81752867D01*
X209724552Y-81708552D01*
X209768867Y-81642231D01*
X209768867Y-81642229D01*
X209768868Y-81642229D01*
X209780499Y-81583752D01*
X209780500Y-81583750D01*
X209780500Y-78944249D01*
X209780499Y-78944247D01*
X209768868Y-78885770D01*
X209768867Y-78885769D01*
X209724552Y-78819447D01*
X209658230Y-78775132D01*
X209658229Y-78775131D01*
X209599752Y-78763500D01*
X209599748Y-78763500D01*
X206960252Y-78763500D01*
X206960247Y-78763500D01*
X206901770Y-78775131D01*
X206901769Y-78775132D01*
X206835447Y-78819447D01*
X206791132Y-78885769D01*
X206791131Y-78885770D01*
X206779500Y-78944247D01*
X206779500Y-81583752D01*
X198442424Y-81583752D01*
X198397354Y-81462913D01*
X198397350Y-81462906D01*
X198311190Y-81347812D01*
X198311187Y-81347809D01*
X198196093Y-81261649D01*
X198196086Y-81261645D01*
X198061379Y-81211403D01*
X198061372Y-81211401D01*
X198001844Y-81205000D01*
X197601187Y-81205000D01*
X197534148Y-81185315D01*
X197488393Y-81132511D01*
X197478449Y-81063353D01*
X197507474Y-80999797D01*
X197542733Y-80971642D01*
X197690450Y-80892685D01*
X197850410Y-80761410D01*
X197981685Y-80601450D01*
X198079232Y-80418954D01*
X198139300Y-80220934D01*
X198159583Y-80015000D01*
X198139300Y-79809066D01*
X198079232Y-79611046D01*
X197981685Y-79428550D01*
X197917565Y-79350419D01*
X197850410Y-79268589D01*
X197690452Y-79137317D01*
X197690453Y-79137317D01*
X197690450Y-79137315D01*
X197507954Y-79039768D01*
X197309934Y-78979700D01*
X197309932Y-78979699D01*
X197309934Y-78979699D01*
X197104000Y-78959417D01*
X196898067Y-78979699D01*
X196700043Y-79039769D01*
X196604372Y-79090907D01*
X196517550Y-79137315D01*
X196517548Y-79137316D01*
X196517547Y-79137317D01*
X196357589Y-79268589D01*
X196226317Y-79428547D01*
X196128769Y-79611043D01*
X196068699Y-79809067D01*
X196048417Y-80015000D01*
X196068699Y-80220932D01*
X196071717Y-80230880D01*
X196128768Y-80418954D01*
X196226315Y-80601450D01*
X196226317Y-80601452D01*
X196357589Y-80761410D01*
X196402275Y-80798082D01*
X196517550Y-80892685D01*
X196665267Y-80971642D01*
X196715111Y-81020605D01*
X196730571Y-81088743D01*
X196706739Y-81154422D01*
X196651181Y-81196791D01*
X196606813Y-81205000D01*
X196206155Y-81205000D01*
X196146627Y-81211401D01*
X196146620Y-81211403D01*
X196011913Y-81261645D01*
X196011906Y-81261649D01*
X195896812Y-81347809D01*
X195896809Y-81347812D01*
X195810649Y-81462906D01*
X195810645Y-81462913D01*
X195760403Y-81597620D01*
X195760401Y-81597627D01*
X195754000Y-81657155D01*
X195754000Y-82305000D01*
X196670988Y-82305000D01*
X196638075Y-82362007D01*
X196604000Y-82489174D01*
X196604000Y-82620826D01*
X196638075Y-82747993D01*
X196670988Y-82805000D01*
X195754000Y-82805000D01*
X195754000Y-83452844D01*
X194213217Y-83452844D01*
X194268994Y-83369368D01*
X194268999Y-83369358D01*
X194348148Y-83178276D01*
X194348149Y-83178274D01*
X194359343Y-83122000D01*
X192888500Y-83122000D01*
X192388500Y-83122000D01*
X192148118Y-83122000D01*
X192198564Y-83071554D01*
X192241351Y-82997445D01*
X192263500Y-82914787D01*
X192263500Y-82829213D01*
X192241351Y-82746555D01*
X192198564Y-82672446D01*
X192148118Y-82622000D01*
X194359343Y-82622000D01*
X194348149Y-82565725D01*
X194348148Y-82565723D01*
X194268999Y-82374641D01*
X194268994Y-82374631D01*
X194154089Y-82202664D01*
X194154086Y-82202660D01*
X194007839Y-82056413D01*
X194007835Y-82056410D01*
X193835868Y-81941505D01*
X193835858Y-81941500D01*
X193644774Y-81862350D01*
X193644767Y-81862348D01*
X193480881Y-81829750D01*
X193418970Y-81797366D01*
X193384396Y-81736650D01*
X193388135Y-81666881D01*
X193429001Y-81610208D01*
X193457618Y-81593572D01*
X193586842Y-81540047D01*
X193593988Y-81537087D01*
X193593988Y-81537086D01*
X193593995Y-81537084D01*
X193716916Y-81454951D01*
X193821451Y-81350416D01*
X193903584Y-81227495D01*
X193960158Y-81090913D01*
X193969596Y-81043462D01*
X193989000Y-80945920D01*
X193989000Y-80798079D01*
X193960159Y-80653092D01*
X193960158Y-80653091D01*
X193960158Y-80653087D01*
X193938770Y-80601452D01*
X193903587Y-80516511D01*
X193903580Y-80516498D01*
X193821451Y-80393584D01*
X193821448Y-80393580D01*
X193716919Y-80289051D01*
X193716915Y-80289048D01*
X193594001Y-80206919D01*
X193593988Y-80206912D01*
X193457417Y-80150343D01*
X193457407Y-80150340D01*
X193312420Y-80121500D01*
X193312418Y-80121500D01*
X191764582Y-80121500D01*
X191764580Y-80121500D01*
X191619592Y-80150340D01*
X191619582Y-80150343D01*
X191483011Y-80206912D01*
X191482998Y-80206919D01*
X191360084Y-80289048D01*
X191360080Y-80289051D01*
X191255551Y-80393580D01*
X191255548Y-80393584D01*
X191173419Y-80516498D01*
X191173412Y-80516511D01*
X191140508Y-80595952D01*
X191096668Y-80650356D01*
X191030374Y-80672421D01*
X191025947Y-80672500D01*
X190949500Y-80672500D01*
X190882461Y-80652815D01*
X190836706Y-80600011D01*
X190825500Y-80548500D01*
X190825500Y-80495730D01*
X190822646Y-80465300D01*
X190822646Y-80465298D01*
X190783299Y-80352853D01*
X190777793Y-80337118D01*
X190697150Y-80227850D01*
X190587882Y-80147207D01*
X190587880Y-80147206D01*
X190459700Y-80102353D01*
X190429270Y-80099500D01*
X190429266Y-80099500D01*
X189795734Y-80099500D01*
X189795730Y-80099500D01*
X189765300Y-80102353D01*
X189765298Y-80102353D01*
X189637119Y-80147206D01*
X189637117Y-80147207D01*
X189527850Y-80227850D01*
X189466776Y-80310602D01*
X189411128Y-80352853D01*
X189341472Y-80358311D01*
X189279923Y-80325243D01*
X189249300Y-80275972D01*
X189234358Y-80230880D01*
X189234356Y-80230875D01*
X189142315Y-80081654D01*
X189018345Y-79957684D01*
X188869124Y-79865643D01*
X188869119Y-79865641D01*
X188702697Y-79810494D01*
X188702690Y-79810493D01*
X188599986Y-79800000D01*
X188537500Y-79800000D01*
X188037500Y-79800000D01*
X188037499Y-79799999D01*
X187975028Y-79800000D01*
X187975011Y-79800001D01*
X187872302Y-79810494D01*
X187705880Y-79865641D01*
X187705875Y-79865643D01*
X187556654Y-79957684D01*
X187432684Y-80081654D01*
X187340643Y-80230875D01*
X187340641Y-80230880D01*
X187285494Y-80397302D01*
X187285493Y-80397309D01*
X187275000Y-80500013D01*
X187275000Y-80750000D01*
X184454500Y-80750000D01*
X184454500Y-80451500D01*
X184474185Y-80384461D01*
X184526989Y-80338706D01*
X184578500Y-80327500D01*
X185124614Y-80327500D01*
X185124616Y-80327500D01*
X185207910Y-80305181D01*
X185282590Y-80262065D01*
X186598734Y-78945920D01*
X191187999Y-78945920D01*
X191216840Y-79090907D01*
X191216843Y-79090917D01*
X191273412Y-79227488D01*
X191273419Y-79227501D01*
X191355548Y-79350415D01*
X191355551Y-79350419D01*
X191460080Y-79454948D01*
X191460084Y-79454951D01*
X191582998Y-79537080D01*
X191583011Y-79537087D01*
X191719582Y-79593656D01*
X191719587Y-79593658D01*
X191719591Y-79593658D01*
X191719592Y-79593659D01*
X191864579Y-79622500D01*
X191864582Y-79622500D01*
X193412420Y-79622500D01*
X193509962Y-79603096D01*
X193557413Y-79593658D01*
X193686842Y-79540047D01*
X193693988Y-79537087D01*
X193693988Y-79537086D01*
X193693995Y-79537084D01*
X193816916Y-79454951D01*
X193921451Y-79350416D01*
X194003584Y-79227495D01*
X194060158Y-79090913D01*
X194082280Y-78979700D01*
X194089000Y-78945920D01*
X194089000Y-78798079D01*
X194060159Y-78653092D01*
X194060158Y-78653091D01*
X194060158Y-78653087D01*
X194060156Y-78653082D01*
X194003587Y-78516511D01*
X194003580Y-78516498D01*
X193921451Y-78393584D01*
X193921448Y-78393580D01*
X193816919Y-78289051D01*
X193816915Y-78289048D01*
X193694001Y-78206919D01*
X193693988Y-78206912D01*
X193557417Y-78150343D01*
X193557407Y-78150340D01*
X193412420Y-78121500D01*
X193412418Y-78121500D01*
X191864582Y-78121500D01*
X191864580Y-78121500D01*
X191719592Y-78150340D01*
X191719582Y-78150343D01*
X191583011Y-78206912D01*
X191582998Y-78206919D01*
X191460084Y-78289048D01*
X191460080Y-78289051D01*
X191355551Y-78393580D01*
X191355548Y-78393584D01*
X191273419Y-78516498D01*
X191273412Y-78516511D01*
X191216843Y-78653082D01*
X191216840Y-78653092D01*
X191188000Y-78798079D01*
X191188000Y-78798082D01*
X191188000Y-78945918D01*
X191188000Y-78945920D01*
X191187999Y-78945920D01*
X186598734Y-78945920D01*
X187614733Y-77929920D01*
X187676054Y-77896437D01*
X187728885Y-77896462D01*
X187734296Y-77897644D01*
X187734301Y-77897646D01*
X187734305Y-77897646D01*
X187734308Y-77897647D01*
X187764730Y-77900500D01*
X187764734Y-77900500D01*
X188398270Y-77900500D01*
X188428699Y-77897646D01*
X188428701Y-77897646D01*
X188493366Y-77875018D01*
X188556882Y-77852793D01*
X188666150Y-77772150D01*
X188746793Y-77662882D01*
X188789775Y-77540047D01*
X188791646Y-77534701D01*
X188791646Y-77534699D01*
X188794500Y-77504269D01*
X189193500Y-77504269D01*
X189196353Y-77534699D01*
X189196353Y-77534701D01*
X189241206Y-77662880D01*
X189241207Y-77662882D01*
X189321850Y-77772150D01*
X189431118Y-77852793D01*
X189444693Y-77857543D01*
X189559299Y-77897646D01*
X189589730Y-77900500D01*
X189589734Y-77900500D01*
X190223270Y-77900500D01*
X190253699Y-77897646D01*
X190253701Y-77897646D01*
X190318366Y-77875018D01*
X190381882Y-77852793D01*
X190491150Y-77772150D01*
X190571793Y-77662882D01*
X190614775Y-77540047D01*
X190616646Y-77534701D01*
X190616646Y-77534699D01*
X190619500Y-77504269D01*
X190619500Y-77451500D01*
X190639185Y-77384461D01*
X190691989Y-77338706D01*
X190743500Y-77327500D01*
X191281270Y-77327500D01*
X191348309Y-77347185D01*
X191368951Y-77363819D01*
X191460080Y-77454948D01*
X191460084Y-77454951D01*
X191582998Y-77537080D01*
X191583011Y-77537087D01*
X191719582Y-77593656D01*
X191719587Y-77593658D01*
X191719591Y-77593658D01*
X191719592Y-77593659D01*
X191864579Y-77622500D01*
X191864582Y-77622500D01*
X193412420Y-77622500D01*
X193509962Y-77603096D01*
X193557413Y-77593658D01*
X193686842Y-77540047D01*
X193693988Y-77537087D01*
X193693988Y-77537086D01*
X193693995Y-77537084D01*
X193816916Y-77454951D01*
X193921451Y-77350416D01*
X194003584Y-77227495D01*
X194060158Y-77090913D01*
X194089000Y-76945918D01*
X194089000Y-76798082D01*
X194089000Y-76798079D01*
X194060159Y-76653092D01*
X194060158Y-76653091D01*
X194060158Y-76653087D01*
X194016837Y-76548500D01*
X194003587Y-76516511D01*
X194003580Y-76516498D01*
X193921451Y-76393584D01*
X193921448Y-76393580D01*
X193816919Y-76289051D01*
X193816915Y-76289048D01*
X193694001Y-76206919D01*
X193693988Y-76206912D01*
X193557417Y-76150343D01*
X193557407Y-76150340D01*
X193412420Y-76121500D01*
X193412418Y-76121500D01*
X191864582Y-76121500D01*
X191864580Y-76121500D01*
X191719592Y-76150340D01*
X191719582Y-76150343D01*
X191583011Y-76206912D01*
X191582998Y-76206919D01*
X191460084Y-76289048D01*
X191460080Y-76289051D01*
X191355551Y-76393580D01*
X191355548Y-76393584D01*
X191273419Y-76516498D01*
X191273412Y-76516511D01*
X191240508Y-76595952D01*
X191196668Y-76650356D01*
X191130374Y-76672421D01*
X191125947Y-76672500D01*
X190743500Y-76672500D01*
X190676461Y-76652815D01*
X190630706Y-76600011D01*
X190619500Y-76548500D01*
X190619500Y-76495730D01*
X190616646Y-76465300D01*
X190616646Y-76465298D01*
X190571793Y-76337119D01*
X190571792Y-76337117D01*
X190491150Y-76227850D01*
X190381882Y-76147207D01*
X190381880Y-76147206D01*
X190253700Y-76102353D01*
X190223270Y-76099500D01*
X190223266Y-76099500D01*
X189589734Y-76099500D01*
X189589730Y-76099500D01*
X189559300Y-76102353D01*
X189559298Y-76102353D01*
X189431119Y-76147206D01*
X189431117Y-76147207D01*
X189321850Y-76227850D01*
X189241207Y-76337117D01*
X189241206Y-76337119D01*
X189196353Y-76465298D01*
X189196353Y-76465300D01*
X189193500Y-76495730D01*
X189193500Y-77504269D01*
X188794500Y-77504269D01*
X188794500Y-76495730D01*
X188791646Y-76465300D01*
X188791646Y-76465298D01*
X188746793Y-76337119D01*
X188746792Y-76337117D01*
X188666150Y-76227850D01*
X188556882Y-76147207D01*
X188556880Y-76147206D01*
X188428700Y-76102353D01*
X188398270Y-76099500D01*
X188398266Y-76099500D01*
X187764734Y-76099500D01*
X187764730Y-76099500D01*
X187734300Y-76102353D01*
X187734298Y-76102353D01*
X187606119Y-76147206D01*
X187606117Y-76147207D01*
X187496850Y-76227850D01*
X187416207Y-76337117D01*
X187416206Y-76337119D01*
X187371353Y-76465298D01*
X187371353Y-76465300D01*
X187368500Y-76495730D01*
X187368500Y-77198483D01*
X187348815Y-77265522D01*
X187332181Y-77286164D01*
X184982164Y-79636181D01*
X184920841Y-79669666D01*
X184894483Y-79672500D01*
X184435105Y-79672500D01*
X184368066Y-79652815D01*
X184341394Y-79629704D01*
X184331128Y-79617857D01*
X184210053Y-79540047D01*
X184210051Y-79540046D01*
X184210049Y-79540045D01*
X184210050Y-79540045D01*
X184071963Y-79499500D01*
X184071961Y-79499500D01*
X184014017Y-79499500D01*
X183946978Y-79479815D01*
X183926336Y-79463181D01*
X181888819Y-77425664D01*
X181855334Y-77364341D01*
X181852500Y-77337983D01*
X181852500Y-74945920D01*
X191187999Y-74945920D01*
X191216840Y-75090907D01*
X191216843Y-75090917D01*
X191273412Y-75227488D01*
X191273419Y-75227501D01*
X191355548Y-75350415D01*
X191355551Y-75350419D01*
X191460080Y-75454948D01*
X191460084Y-75454951D01*
X191582998Y-75537080D01*
X191583011Y-75537087D01*
X191719582Y-75593656D01*
X191719587Y-75593658D01*
X191719591Y-75593658D01*
X191719592Y-75593659D01*
X191864579Y-75622500D01*
X191864582Y-75622500D01*
X193412420Y-75622500D01*
X193509962Y-75603096D01*
X193557413Y-75593658D01*
X193693995Y-75537084D01*
X193816916Y-75454951D01*
X193921451Y-75350416D01*
X194003584Y-75227495D01*
X194060158Y-75090913D01*
X194089000Y-74945918D01*
X194089000Y-74798082D01*
X194089000Y-74798079D01*
X194060159Y-74653092D01*
X194060158Y-74653091D01*
X194060158Y-74653087D01*
X194057331Y-74646261D01*
X194003587Y-74516511D01*
X194003580Y-74516498D01*
X193921451Y-74393584D01*
X193921448Y-74393580D01*
X193816919Y-74289051D01*
X193816915Y-74289048D01*
X193694001Y-74206919D01*
X193693988Y-74206912D01*
X193557417Y-74150343D01*
X193557407Y-74150340D01*
X193412420Y-74121500D01*
X193412418Y-74121500D01*
X191864582Y-74121500D01*
X191864580Y-74121500D01*
X191719592Y-74150340D01*
X191719582Y-74150343D01*
X191583011Y-74206912D01*
X191582998Y-74206919D01*
X191460084Y-74289048D01*
X191460080Y-74289051D01*
X191355551Y-74393580D01*
X191355548Y-74393584D01*
X191273419Y-74516498D01*
X191273412Y-74516511D01*
X191216843Y-74653082D01*
X191216840Y-74653092D01*
X191188000Y-74798079D01*
X191188000Y-74798082D01*
X191188000Y-74945918D01*
X191188000Y-74945920D01*
X191187999Y-74945920D01*
X181852500Y-74945920D01*
X181852500Y-73992521D01*
X181872185Y-73925482D01*
X181924989Y-73879727D01*
X181935526Y-73875486D01*
X182000382Y-73852793D01*
X182109650Y-73772150D01*
X182190293Y-73662882D01*
X182214516Y-73593656D01*
X182235146Y-73534701D01*
X182235146Y-73534699D01*
X182238000Y-73504269D01*
X182238000Y-72945920D01*
X191187999Y-72945920D01*
X191216840Y-73090907D01*
X191216843Y-73090917D01*
X191273412Y-73227488D01*
X191273419Y-73227501D01*
X191355548Y-73350415D01*
X191355551Y-73350419D01*
X191460080Y-73454948D01*
X191460084Y-73454951D01*
X191582998Y-73537080D01*
X191583011Y-73537087D01*
X191719582Y-73593656D01*
X191719587Y-73593658D01*
X191719591Y-73593658D01*
X191719592Y-73593659D01*
X191864579Y-73622500D01*
X191864582Y-73622500D01*
X193412420Y-73622500D01*
X193510896Y-73602911D01*
X193557413Y-73593658D01*
X193693995Y-73537084D01*
X193816916Y-73454951D01*
X193921451Y-73350416D01*
X194003584Y-73227495D01*
X194060158Y-73090913D01*
X194089000Y-72945918D01*
X194089000Y-72798082D01*
X194089000Y-72798079D01*
X194060159Y-72653092D01*
X194060158Y-72653091D01*
X194060158Y-72653087D01*
X194016837Y-72548500D01*
X194003587Y-72516511D01*
X194003580Y-72516498D01*
X193921451Y-72393584D01*
X193921448Y-72393580D01*
X193816919Y-72289051D01*
X193816915Y-72289048D01*
X193694001Y-72206919D01*
X193693988Y-72206912D01*
X193557417Y-72150343D01*
X193557407Y-72150340D01*
X193412420Y-72121500D01*
X193412418Y-72121500D01*
X191864582Y-72121500D01*
X191864580Y-72121500D01*
X191719592Y-72150340D01*
X191719582Y-72150343D01*
X191583011Y-72206912D01*
X191582998Y-72206919D01*
X191460084Y-72289048D01*
X191460080Y-72289051D01*
X191355551Y-72393580D01*
X191355548Y-72393584D01*
X191273419Y-72516498D01*
X191273412Y-72516511D01*
X191216843Y-72653082D01*
X191216840Y-72653092D01*
X191188000Y-72798079D01*
X191188000Y-72798082D01*
X191188000Y-72945918D01*
X191188000Y-72945920D01*
X191187999Y-72945920D01*
X182238000Y-72945920D01*
X182238000Y-72495730D01*
X182235146Y-72465300D01*
X182235146Y-72465298D01*
X182190293Y-72337119D01*
X182190292Y-72337117D01*
X182109650Y-72227850D01*
X182000382Y-72147207D01*
X182000381Y-72147206D01*
X181992905Y-72141689D01*
X181994743Y-72139197D01*
X181955984Y-72101475D01*
X181940000Y-72040577D01*
X181940000Y-70124000D01*
X181959685Y-70056961D01*
X182012489Y-70011206D01*
X182064000Y-70000000D01*
X191483903Y-70000000D01*
X191550942Y-70019685D01*
X191596697Y-70072489D01*
X191606641Y-70141647D01*
X191577616Y-70205203D01*
X191552794Y-70227102D01*
X191460083Y-70289048D01*
X191355551Y-70393580D01*
X191355548Y-70393584D01*
X191273419Y-70516498D01*
X191273412Y-70516511D01*
X191216843Y-70653082D01*
X191216840Y-70653092D01*
X191188000Y-70798079D01*
X191188000Y-70798082D01*
X191188000Y-70945918D01*
X191188000Y-70945920D01*
X191187999Y-70945920D01*
X191216840Y-71090907D01*
X191216843Y-71090917D01*
X191273412Y-71227488D01*
X191273419Y-71227501D01*
X191355548Y-71350415D01*
X191355551Y-71350419D01*
X191460080Y-71454948D01*
X191460084Y-71454951D01*
X191582998Y-71537080D01*
X191583011Y-71537087D01*
X191702185Y-71586450D01*
X191719587Y-71593658D01*
X191719591Y-71593658D01*
X191719592Y-71593659D01*
X191864579Y-71622500D01*
X191864582Y-71622500D01*
X193412420Y-71622500D01*
X193509962Y-71603096D01*
X193557413Y-71593658D01*
X193693995Y-71537084D01*
X193816916Y-71454951D01*
X193921451Y-71350416D01*
X194003584Y-71227495D01*
X194060158Y-71090913D01*
X194089000Y-70945918D01*
X194089000Y-70798082D01*
X194089000Y-70798079D01*
X194060159Y-70653092D01*
X194060158Y-70653091D01*
X194060158Y-70653087D01*
X194059319Y-70651061D01*
X194003587Y-70516511D01*
X194003580Y-70516498D01*
X193921451Y-70393584D01*
X193921448Y-70393580D01*
X193816916Y-70289048D01*
X193724206Y-70227102D01*
X193679401Y-70173490D01*
X193670694Y-70104165D01*
X193700848Y-70041138D01*
X193760291Y-70004418D01*
X193793097Y-70000000D01*
X198285516Y-70000000D01*
X198352555Y-70019685D01*
X198398310Y-70072489D01*
X198406881Y-70124160D01*
X198409500Y-70124160D01*
X198409500Y-71869752D01*
X198421131Y-71928229D01*
X198421132Y-71928230D01*
X198465447Y-71994552D01*
X198531769Y-72038867D01*
X198531770Y-72038868D01*
X198590247Y-72050499D01*
X198590250Y-72050500D01*
X198590252Y-72050500D01*
X200329750Y-72050500D01*
X200329751Y-72050499D01*
X200344568Y-72047552D01*
X200388229Y-72038868D01*
X200388229Y-72038867D01*
X200388231Y-72038867D01*
X200454552Y-71994552D01*
X200498867Y-71928231D01*
X200498867Y-71928229D01*
X200498868Y-71928229D01*
X200508922Y-71877682D01*
X200510500Y-71869748D01*
X200510500Y-71559456D01*
X200530185Y-71492417D01*
X200582989Y-71446662D01*
X200652147Y-71436718D01*
X200715703Y-71465743D01*
X200746882Y-71507051D01*
X200826400Y-71677578D01*
X200961894Y-71871082D01*
X201128917Y-72038105D01*
X201322421Y-72173600D01*
X201536507Y-72273429D01*
X201536516Y-72273433D01*
X201750000Y-72330634D01*
X201750000Y-71433012D01*
X201807007Y-71465925D01*
X201934174Y-71500000D01*
X202065826Y-71500000D01*
X202192993Y-71465925D01*
X202250000Y-71433012D01*
X202250000Y-72330633D01*
X202463483Y-72273433D01*
X202463492Y-72273429D01*
X202677578Y-72173600D01*
X202871082Y-72038105D01*
X203038105Y-71871082D01*
X203173600Y-71677578D01*
X203273429Y-71463492D01*
X203273433Y-71463483D01*
X203306158Y-71341350D01*
X203342522Y-71281690D01*
X203405369Y-71251160D01*
X203474745Y-71259454D01*
X203528623Y-71303939D01*
X203544593Y-71337447D01*
X203564768Y-71403954D01*
X203662315Y-71586450D01*
X203691900Y-71622500D01*
X203793589Y-71746410D01*
X203890209Y-71825702D01*
X203953550Y-71877685D01*
X204136046Y-71975232D01*
X204334066Y-72035300D01*
X204334065Y-72035300D01*
X204352529Y-72037118D01*
X204540000Y-72055583D01*
X204745934Y-72035300D01*
X204943954Y-71975232D01*
X205126450Y-71877685D01*
X205286410Y-71746410D01*
X205417685Y-71586450D01*
X205515232Y-71403954D01*
X205575300Y-71205934D01*
X205595583Y-71000000D01*
X205575300Y-70794066D01*
X205515232Y-70596046D01*
X205417685Y-70413550D01*
X205286410Y-70253590D01*
X205286409Y-70253589D01*
X205245302Y-70219853D01*
X205205968Y-70162108D01*
X205204097Y-70092263D01*
X205240284Y-70032495D01*
X205303040Y-70001779D01*
X205323967Y-70000000D01*
X207500739Y-70000000D01*
X207567778Y-70019685D01*
X207613533Y-70072489D01*
X207623477Y-70141647D01*
X207619530Y-70159560D01*
X207615668Y-70172464D01*
X207575430Y-70306865D01*
X207575428Y-70306872D01*
X207514739Y-70651061D01*
X207514738Y-70651072D01*
X207494415Y-70999996D01*
X207494415Y-71000003D01*
X207514738Y-71348927D01*
X207514739Y-71348938D01*
X207575428Y-71693127D01*
X207575430Y-71693134D01*
X207675674Y-72027972D01*
X207814107Y-72348895D01*
X207814113Y-72348908D01*
X207988870Y-72651597D01*
X208197584Y-72931949D01*
X208197589Y-72931955D01*
X208242114Y-72979148D01*
X208437442Y-73186183D01*
X208605857Y-73327500D01*
X208705186Y-73410847D01*
X208705194Y-73410853D01*
X208997203Y-73602911D01*
X208997207Y-73602913D01*
X209309549Y-73759777D01*
X209637989Y-73879319D01*
X209978086Y-73959923D01*
X210325241Y-74000500D01*
X210325248Y-74000500D01*
X210674752Y-74000500D01*
X210674759Y-74000500D01*
X211021914Y-73959923D01*
X211362011Y-73879319D01*
X211690451Y-73759777D01*
X212002793Y-73602913D01*
X212294811Y-73410849D01*
X212562558Y-73186183D01*
X212802412Y-72931953D01*
X213011130Y-72651596D01*
X213185889Y-72348904D01*
X213324326Y-72027971D01*
X213424569Y-71693136D01*
X213427313Y-71677578D01*
X213485260Y-71348938D01*
X213485259Y-71348938D01*
X213485262Y-71348927D01*
X213505585Y-71000000D01*
X213485262Y-70651073D01*
X213476239Y-70599901D01*
X213424571Y-70306872D01*
X213424569Y-70306865D01*
X213419235Y-70289049D01*
X213380469Y-70159563D01*
X213380101Y-70089695D01*
X213417564Y-70030718D01*
X213480965Y-70001357D01*
X213499261Y-70000000D01*
X213779500Y-70000000D01*
X213846539Y-70019685D01*
X213892294Y-70072489D01*
X213903500Y-70124000D01*
X213903500Y-95876000D01*
X213883815Y-95943039D01*
X213831011Y-95988794D01*
X213779500Y-96000000D01*
X157124000Y-96000000D01*
X157056961Y-95980315D01*
X157011206Y-95927511D01*
X157000000Y-95876000D01*
X157000000Y-93375752D01*
X158919500Y-93375752D01*
X158931131Y-93434229D01*
X158931132Y-93434230D01*
X158975447Y-93500552D01*
X159041769Y-93544867D01*
X159041770Y-93544868D01*
X159100247Y-93556499D01*
X159100250Y-93556500D01*
X159100252Y-93556500D01*
X160605983Y-93556500D01*
X160673022Y-93576185D01*
X160693664Y-93592819D01*
X161362910Y-94262065D01*
X161437590Y-94305181D01*
X161520884Y-94327500D01*
X161520886Y-94327500D01*
X171043114Y-94327500D01*
X171043116Y-94327500D01*
X171126410Y-94305181D01*
X171201090Y-94262065D01*
X171892467Y-93570686D01*
X171953788Y-93537203D01*
X172002926Y-93536480D01*
X172110024Y-93556500D01*
X172110026Y-93556500D01*
X172313974Y-93556500D01*
X172313976Y-93556500D01*
X172514456Y-93519024D01*
X172647980Y-93467297D01*
X172653481Y-93465166D01*
X172723104Y-93459303D01*
X172784844Y-93492013D01*
X172785956Y-93493111D01*
X173554910Y-94262065D01*
X173629590Y-94305181D01*
X173712884Y-94327500D01*
X173712886Y-94327500D01*
X180363114Y-94327500D01*
X180363116Y-94327500D01*
X180446410Y-94305181D01*
X180521090Y-94262065D01*
X181290044Y-93493109D01*
X181351365Y-93459626D01*
X181421056Y-93464610D01*
X181422513Y-93465163D01*
X181561544Y-93519024D01*
X181762024Y-93556500D01*
X181762026Y-93556500D01*
X181965974Y-93556500D01*
X181965976Y-93556500D01*
X182166456Y-93519024D01*
X182356637Y-93445348D01*
X182530041Y-93337981D01*
X182680764Y-93200579D01*
X182803673Y-93037821D01*
X182838678Y-92967522D01*
X182896087Y-92852229D01*
X182943590Y-92800991D01*
X183007087Y-92783500D01*
X187751500Y-92783500D01*
X187818539Y-92803185D01*
X187864294Y-92855989D01*
X187875500Y-92907500D01*
X187875500Y-93375752D01*
X187887131Y-93434229D01*
X187887132Y-93434230D01*
X187931447Y-93500552D01*
X187997769Y-93544867D01*
X187997770Y-93544868D01*
X188056247Y-93556499D01*
X188056250Y-93556500D01*
X188056252Y-93556500D01*
X189895750Y-93556500D01*
X189895751Y-93556499D01*
X189910568Y-93553552D01*
X189954229Y-93544868D01*
X189954229Y-93544867D01*
X189954231Y-93544867D01*
X190020552Y-93500552D01*
X190064867Y-93434231D01*
X190064867Y-93434229D01*
X190064868Y-93434229D01*
X190076499Y-93375752D01*
X190076500Y-93375750D01*
X190076500Y-91779017D01*
X190096185Y-91711978D01*
X190148989Y-91666223D01*
X190218147Y-91656279D01*
X190281703Y-91685304D01*
X190288181Y-91691336D01*
X190478235Y-91881390D01*
X190511720Y-91942713D01*
X190506736Y-92012405D01*
X190501555Y-92024341D01*
X190485418Y-92056750D01*
X190483679Y-92062862D01*
X190429602Y-92252917D01*
X190410785Y-92455999D01*
X190410785Y-92456000D01*
X190429602Y-92659082D01*
X190485417Y-92855247D01*
X190485422Y-92855260D01*
X190576327Y-93037821D01*
X190699237Y-93200581D01*
X190849958Y-93337980D01*
X190849960Y-93337982D01*
X190910955Y-93375748D01*
X191023363Y-93445348D01*
X191213544Y-93519024D01*
X191414024Y-93556500D01*
X191414026Y-93556500D01*
X191617974Y-93556500D01*
X191617976Y-93556500D01*
X191818456Y-93519024D01*
X192008637Y-93445348D01*
X192182041Y-93337981D01*
X192332764Y-93200579D01*
X192455673Y-93037821D01*
X192490678Y-92967522D01*
X192548087Y-92852229D01*
X192595590Y-92800991D01*
X192659087Y-92783500D01*
X197403500Y-92783500D01*
X197470539Y-92803185D01*
X197516294Y-92855989D01*
X197527500Y-92907500D01*
X197527500Y-93375752D01*
X197539131Y-93434229D01*
X197539132Y-93434230D01*
X197583447Y-93500552D01*
X197649769Y-93544867D01*
X197649770Y-93544868D01*
X197708247Y-93556499D01*
X197708250Y-93556500D01*
X197708252Y-93556500D01*
X199547750Y-93556500D01*
X199547751Y-93556499D01*
X199562568Y-93553552D01*
X199606229Y-93544868D01*
X199606229Y-93544867D01*
X199606231Y-93544867D01*
X199672552Y-93500552D01*
X199716867Y-93434231D01*
X199716867Y-93434229D01*
X199716868Y-93434229D01*
X199728499Y-93375752D01*
X199728500Y-93375750D01*
X199728500Y-91870017D01*
X199748185Y-91802978D01*
X199764819Y-91782336D01*
X200183336Y-91363819D01*
X200244659Y-91330334D01*
X200271017Y-91327500D01*
X200464286Y-91327500D01*
X200531325Y-91347185D01*
X200577080Y-91399989D01*
X200587024Y-91469147D01*
X200557999Y-91532703D01*
X200529563Y-91556927D01*
X200501960Y-91574017D01*
X200501958Y-91574019D01*
X200351237Y-91711418D01*
X200228327Y-91874178D01*
X200137422Y-92056739D01*
X200137417Y-92056752D01*
X200081602Y-92252917D01*
X200062785Y-92455999D01*
X200062785Y-92456000D01*
X200081602Y-92659082D01*
X200137417Y-92855247D01*
X200137422Y-92855260D01*
X200228327Y-93037821D01*
X200351237Y-93200581D01*
X200501958Y-93337980D01*
X200501960Y-93337982D01*
X200562955Y-93375748D01*
X200675363Y-93445348D01*
X200865544Y-93519024D01*
X201066024Y-93556500D01*
X201066026Y-93556500D01*
X201269974Y-93556500D01*
X201269976Y-93556500D01*
X201470456Y-93519024D01*
X201660637Y-93445348D01*
X201834041Y-93337981D01*
X201984764Y-93200579D01*
X202107673Y-93037821D01*
X202142678Y-92967522D01*
X202200087Y-92852229D01*
X202247590Y-92800991D01*
X202311087Y-92783500D01*
X207055500Y-92783500D01*
X207122539Y-92803185D01*
X207168294Y-92855989D01*
X207179500Y-92907500D01*
X207179500Y-93375752D01*
X207191131Y-93434229D01*
X207191132Y-93434230D01*
X207235447Y-93500552D01*
X207301769Y-93544867D01*
X207301770Y-93544868D01*
X207360247Y-93556499D01*
X207360250Y-93556500D01*
X207360252Y-93556500D01*
X209199750Y-93556500D01*
X209199751Y-93556499D01*
X209214568Y-93553552D01*
X209258229Y-93544868D01*
X209258229Y-93544867D01*
X209258231Y-93544867D01*
X209324552Y-93500552D01*
X209368867Y-93434231D01*
X209368867Y-93434229D01*
X209368868Y-93434229D01*
X209380499Y-93375752D01*
X209380500Y-93375750D01*
X209380500Y-91865017D01*
X209400185Y-91797978D01*
X209452989Y-91752223D01*
X209522147Y-91742279D01*
X209585703Y-91771304D01*
X209592181Y-91777336D01*
X209756092Y-91941247D01*
X209789577Y-92002570D01*
X209787678Y-92062862D01*
X209733602Y-92252921D01*
X209714785Y-92455999D01*
X209714785Y-92456000D01*
X209733602Y-92659082D01*
X209789417Y-92855247D01*
X209789422Y-92855260D01*
X209880327Y-93037821D01*
X210003237Y-93200581D01*
X210153958Y-93337980D01*
X210153960Y-93337982D01*
X210214955Y-93375748D01*
X210327363Y-93445348D01*
X210517544Y-93519024D01*
X210718024Y-93556500D01*
X210718026Y-93556500D01*
X210921974Y-93556500D01*
X210921976Y-93556500D01*
X211122456Y-93519024D01*
X211312637Y-93445348D01*
X211486041Y-93337981D01*
X211636764Y-93200579D01*
X211759673Y-93037821D01*
X211850582Y-92855250D01*
X211906397Y-92659083D01*
X211925215Y-92456000D01*
X211906397Y-92252917D01*
X211850582Y-92056750D01*
X211834444Y-92024341D01*
X211793069Y-91941247D01*
X211759673Y-91874179D01*
X211700704Y-91796091D01*
X211636762Y-91711418D01*
X211486041Y-91574019D01*
X211486039Y-91574017D01*
X211312642Y-91466655D01*
X211312635Y-91466651D01*
X211170135Y-91411447D01*
X211122456Y-91392976D01*
X210921976Y-91355500D01*
X210718024Y-91355500D01*
X210517544Y-91392976D01*
X210517541Y-91392976D01*
X210517541Y-91392977D01*
X210469862Y-91411448D01*
X210327363Y-91466652D01*
X210327361Y-91466652D01*
X210322018Y-91468723D01*
X210321606Y-91467662D01*
X210258628Y-91478887D01*
X210194134Y-91452013D01*
X210184462Y-91443307D01*
X209479091Y-90737936D01*
X209479090Y-90737935D01*
X209404410Y-90694819D01*
X209404411Y-90694819D01*
X209376645Y-90687379D01*
X209321116Y-90672500D01*
X200127116Y-90672500D01*
X200040884Y-90672500D01*
X199985354Y-90687379D01*
X199957589Y-90694819D01*
X199882911Y-90737934D01*
X199882908Y-90737936D01*
X199301664Y-91319181D01*
X199240341Y-91352666D01*
X199213983Y-91355500D01*
X197708247Y-91355500D01*
X197649770Y-91367131D01*
X197649769Y-91367132D01*
X197583447Y-91411447D01*
X197539132Y-91477769D01*
X197539131Y-91477770D01*
X197527500Y-91536247D01*
X197527500Y-92004500D01*
X197507815Y-92071539D01*
X197455011Y-92117294D01*
X197403500Y-92128500D01*
X192659087Y-92128500D01*
X192592048Y-92108815D01*
X192548087Y-92059771D01*
X192455674Y-91874180D01*
X192332762Y-91711418D01*
X192182041Y-91574019D01*
X192182039Y-91574017D01*
X192008642Y-91466655D01*
X192008635Y-91466651D01*
X191866135Y-91411447D01*
X191818456Y-91392976D01*
X191617976Y-91355500D01*
X191414024Y-91355500D01*
X191262739Y-91383779D01*
X191213538Y-91392977D01*
X191074517Y-91446834D01*
X191004894Y-91452696D01*
X190943154Y-91419986D01*
X190942043Y-91418888D01*
X190490091Y-90966936D01*
X190490090Y-90966935D01*
X190415410Y-90923819D01*
X190415411Y-90923819D01*
X190387645Y-90916379D01*
X190332116Y-90901500D01*
X180594116Y-90901500D01*
X180507884Y-90901500D01*
X180452354Y-90916379D01*
X180424589Y-90923819D01*
X180349911Y-90966934D01*
X180349908Y-90966936D01*
X179997664Y-91319181D01*
X179936341Y-91352666D01*
X179909983Y-91355500D01*
X178404247Y-91355500D01*
X178345770Y-91367131D01*
X178345769Y-91367132D01*
X178279447Y-91411447D01*
X178235132Y-91477769D01*
X178235131Y-91477770D01*
X178223500Y-91536247D01*
X178223500Y-93375752D01*
X178235131Y-93434228D01*
X178235132Y-93434230D01*
X178235133Y-93434231D01*
X178265454Y-93479609D01*
X178286332Y-93546286D01*
X178267848Y-93613666D01*
X178215870Y-93660357D01*
X178162352Y-93672500D01*
X173943017Y-93672500D01*
X173875978Y-93652815D01*
X173855336Y-93636181D01*
X173249764Y-93030609D01*
X173216279Y-92969286D01*
X173221263Y-92899594D01*
X173226438Y-92887671D01*
X173242582Y-92855250D01*
X173298397Y-92659083D01*
X173317215Y-92456000D01*
X173298397Y-92252917D01*
X173242582Y-92056750D01*
X173226444Y-92024341D01*
X173185069Y-91941247D01*
X173151673Y-91874179D01*
X173092704Y-91796091D01*
X173028762Y-91711418D01*
X172878041Y-91574019D01*
X172878039Y-91574017D01*
X172704642Y-91466655D01*
X172704635Y-91466651D01*
X172562135Y-91411447D01*
X172514456Y-91392976D01*
X172313976Y-91355500D01*
X172110024Y-91355500D01*
X171909544Y-91392976D01*
X171909541Y-91392976D01*
X171909541Y-91392977D01*
X171719364Y-91466651D01*
X171719357Y-91466655D01*
X171545960Y-91574017D01*
X171545958Y-91574019D01*
X171395237Y-91711418D01*
X171272327Y-91874178D01*
X171181422Y-92056739D01*
X171181417Y-92056752D01*
X171125602Y-92252917D01*
X171106785Y-92455999D01*
X171106785Y-92456000D01*
X171125602Y-92659082D01*
X171181417Y-92855247D01*
X171181422Y-92855260D01*
X171272323Y-93037814D01*
X171272326Y-93037819D01*
X171272327Y-93037821D01*
X171304838Y-93080874D01*
X171329529Y-93146233D01*
X171314963Y-93214568D01*
X171293564Y-93243279D01*
X170960018Y-93576826D01*
X170898695Y-93610311D01*
X170829004Y-93605327D01*
X170773070Y-93563456D01*
X170748653Y-93497991D01*
X170757778Y-93441687D01*
X170760864Y-93434235D01*
X170760867Y-93434231D01*
X170772500Y-93375748D01*
X170772500Y-91536252D01*
X170772500Y-91536249D01*
X170772499Y-91536247D01*
X170760868Y-91477770D01*
X170760867Y-91477769D01*
X170716552Y-91411447D01*
X170650230Y-91367132D01*
X170650229Y-91367131D01*
X170591752Y-91355500D01*
X170591748Y-91355500D01*
X170123500Y-91355500D01*
X170056461Y-91335815D01*
X170010706Y-91283011D01*
X169999500Y-91231500D01*
X169999500Y-85345920D01*
X179177999Y-85345920D01*
X179206840Y-85490907D01*
X179206843Y-85490917D01*
X179263412Y-85627488D01*
X179263419Y-85627501D01*
X179345548Y-85750415D01*
X179345551Y-85750419D01*
X179450080Y-85854948D01*
X179450084Y-85854951D01*
X179572998Y-85937080D01*
X179573011Y-85937087D01*
X179709582Y-85993656D01*
X179709587Y-85993658D01*
X179709591Y-85993658D01*
X179709592Y-85993659D01*
X179854579Y-86022500D01*
X179854582Y-86022500D01*
X180002420Y-86022500D01*
X180099962Y-86003096D01*
X180147413Y-85993658D01*
X180283995Y-85937084D01*
X180406916Y-85854951D01*
X180511451Y-85750416D01*
X180593584Y-85627495D01*
X180650158Y-85490913D01*
X180679000Y-85345920D01*
X181177999Y-85345920D01*
X181206840Y-85490907D01*
X181206843Y-85490917D01*
X181263412Y-85627488D01*
X181263419Y-85627501D01*
X181345548Y-85750415D01*
X181345551Y-85750419D01*
X181450080Y-85854948D01*
X181450084Y-85854951D01*
X181572998Y-85937080D01*
X181573011Y-85937087D01*
X181709582Y-85993656D01*
X181709587Y-85993658D01*
X181709591Y-85993658D01*
X181709592Y-85993659D01*
X181854579Y-86022500D01*
X181854582Y-86022500D01*
X182002420Y-86022500D01*
X182099962Y-86003096D01*
X182147413Y-85993658D01*
X182283995Y-85937084D01*
X182406916Y-85854951D01*
X182511451Y-85750416D01*
X182593584Y-85627495D01*
X182650158Y-85490913D01*
X182679000Y-85345918D01*
X182679000Y-83798082D01*
X182679000Y-83798079D01*
X182650159Y-83653092D01*
X182650158Y-83653091D01*
X182650158Y-83653087D01*
X182647672Y-83647086D01*
X182593587Y-83516511D01*
X182593580Y-83516498D01*
X182511451Y-83393584D01*
X182511448Y-83393580D01*
X182406919Y-83289051D01*
X182406915Y-83289048D01*
X182284001Y-83206919D01*
X182283988Y-83206912D01*
X182147417Y-83150343D01*
X182147407Y-83150340D01*
X182002420Y-83121500D01*
X182002418Y-83121500D01*
X181854582Y-83121500D01*
X181854580Y-83121500D01*
X181709592Y-83150340D01*
X181709582Y-83150343D01*
X181573011Y-83206912D01*
X181572998Y-83206919D01*
X181450084Y-83289048D01*
X181450080Y-83289051D01*
X181345551Y-83393580D01*
X181345548Y-83393584D01*
X181263419Y-83516498D01*
X181263412Y-83516511D01*
X181206843Y-83653082D01*
X181206840Y-83653092D01*
X181178000Y-83798079D01*
X181178000Y-83798082D01*
X181178000Y-85345918D01*
X181178000Y-85345920D01*
X181177999Y-85345920D01*
X180679000Y-85345920D01*
X180679000Y-85345918D01*
X180679000Y-83798082D01*
X180679000Y-83798079D01*
X180650159Y-83653092D01*
X180650158Y-83653091D01*
X180650158Y-83653087D01*
X180647672Y-83647086D01*
X180593587Y-83516511D01*
X180593580Y-83516498D01*
X180511451Y-83393584D01*
X180511448Y-83393580D01*
X180406919Y-83289051D01*
X180406915Y-83289048D01*
X180284001Y-83206919D01*
X180283988Y-83206912D01*
X180147417Y-83150343D01*
X180147407Y-83150340D01*
X180002420Y-83121500D01*
X180002418Y-83121500D01*
X179854582Y-83121500D01*
X179854580Y-83121500D01*
X179709592Y-83150340D01*
X179709582Y-83150343D01*
X179573011Y-83206912D01*
X179572998Y-83206919D01*
X179450084Y-83289048D01*
X179450080Y-83289051D01*
X179345551Y-83393580D01*
X179345548Y-83393584D01*
X179263419Y-83516498D01*
X179263412Y-83516511D01*
X179206843Y-83653082D01*
X179206840Y-83653092D01*
X179178000Y-83798079D01*
X179178000Y-83798082D01*
X179178000Y-85345918D01*
X179178000Y-85345920D01*
X179177999Y-85345920D01*
X169999500Y-85345920D01*
X169999500Y-82945920D01*
X175787999Y-82945920D01*
X175816840Y-83090907D01*
X175816843Y-83090917D01*
X175873412Y-83227488D01*
X175873419Y-83227501D01*
X175955548Y-83350415D01*
X175955551Y-83350419D01*
X176060080Y-83454948D01*
X176060084Y-83454951D01*
X176182998Y-83537080D01*
X176183011Y-83537087D01*
X176296770Y-83584207D01*
X176319587Y-83593658D01*
X176319591Y-83593658D01*
X176319592Y-83593659D01*
X176464579Y-83622500D01*
X176464582Y-83622500D01*
X178012420Y-83622500D01*
X178109962Y-83603096D01*
X178157413Y-83593658D01*
X178293995Y-83537084D01*
X178416916Y-83454951D01*
X178521451Y-83350416D01*
X178603584Y-83227495D01*
X178660158Y-83090913D01*
X178674642Y-83018099D01*
X178689000Y-82945920D01*
X178689000Y-82798079D01*
X178660159Y-82653092D01*
X178660158Y-82653091D01*
X178660158Y-82653087D01*
X178648097Y-82623968D01*
X178603587Y-82516511D01*
X178603580Y-82516498D01*
X178521451Y-82393584D01*
X178521448Y-82393580D01*
X178416919Y-82289051D01*
X178416915Y-82289048D01*
X178294001Y-82206919D01*
X178293988Y-82206912D01*
X178157417Y-82150343D01*
X178157407Y-82150340D01*
X178012420Y-82121500D01*
X178012418Y-82121500D01*
X176464582Y-82121500D01*
X176464580Y-82121500D01*
X176319592Y-82150340D01*
X176319582Y-82150343D01*
X176183011Y-82206912D01*
X176182998Y-82206919D01*
X176060084Y-82289048D01*
X176060080Y-82289051D01*
X175955551Y-82393580D01*
X175955548Y-82393584D01*
X175873419Y-82516498D01*
X175873412Y-82516511D01*
X175816843Y-82653082D01*
X175816840Y-82653092D01*
X175788000Y-82798079D01*
X175788000Y-82798082D01*
X175788000Y-82945918D01*
X175788000Y-82945920D01*
X175787999Y-82945920D01*
X169999500Y-82945920D01*
X169999500Y-82515017D01*
X170019185Y-82447978D01*
X170035819Y-82427336D01*
X171517235Y-80945920D01*
X175787999Y-80945920D01*
X175816840Y-81090907D01*
X175816843Y-81090917D01*
X175873412Y-81227488D01*
X175873419Y-81227501D01*
X175955548Y-81350415D01*
X175955551Y-81350419D01*
X176060080Y-81454948D01*
X176060084Y-81454951D01*
X176182998Y-81537080D01*
X176183011Y-81537087D01*
X176319379Y-81593572D01*
X176319587Y-81593658D01*
X176319591Y-81593658D01*
X176319592Y-81593659D01*
X176464579Y-81622500D01*
X176464582Y-81622500D01*
X178012420Y-81622500D01*
X178111972Y-81602697D01*
X178157413Y-81593658D01*
X178286842Y-81540047D01*
X178293988Y-81537087D01*
X178293988Y-81537086D01*
X178293995Y-81537084D01*
X178416916Y-81454951D01*
X178521451Y-81350416D01*
X178603584Y-81227495D01*
X178660158Y-81090913D01*
X178669596Y-81043462D01*
X178689000Y-80945920D01*
X178689000Y-80798079D01*
X178660159Y-80653092D01*
X178660158Y-80653091D01*
X178660158Y-80653087D01*
X178638770Y-80601452D01*
X178603587Y-80516511D01*
X178603580Y-80516498D01*
X178521451Y-80393584D01*
X178521448Y-80393580D01*
X178416919Y-80289051D01*
X178416915Y-80289048D01*
X178294001Y-80206919D01*
X178293988Y-80206912D01*
X178157417Y-80150343D01*
X178157407Y-80150340D01*
X178012420Y-80121500D01*
X178012418Y-80121500D01*
X176464582Y-80121500D01*
X176464580Y-80121500D01*
X176319592Y-80150340D01*
X176319582Y-80150343D01*
X176183011Y-80206912D01*
X176182998Y-80206919D01*
X176060084Y-80289048D01*
X176060080Y-80289051D01*
X175955551Y-80393580D01*
X175955548Y-80393584D01*
X175873419Y-80516498D01*
X175873412Y-80516511D01*
X175816843Y-80653082D01*
X175816840Y-80653092D01*
X175788000Y-80798079D01*
X175788000Y-80798082D01*
X175788000Y-80945918D01*
X175788000Y-80945920D01*
X175787999Y-80945920D01*
X171517235Y-80945920D01*
X171926336Y-80536819D01*
X171987659Y-80503334D01*
X172014017Y-80500500D01*
X172071962Y-80500500D01*
X172071962Y-80500499D01*
X172191843Y-80465300D01*
X172210050Y-80459954D01*
X172210050Y-80459953D01*
X172210053Y-80459953D01*
X172331128Y-80382143D01*
X172425377Y-80273373D01*
X172485165Y-80142457D01*
X172505647Y-80000000D01*
X172485165Y-79857543D01*
X172425377Y-79726627D01*
X172331128Y-79617857D01*
X172210053Y-79540047D01*
X172210051Y-79540046D01*
X172210049Y-79540045D01*
X172210050Y-79540045D01*
X172071963Y-79499500D01*
X172071961Y-79499500D01*
X171928039Y-79499500D01*
X171928036Y-79499500D01*
X171789949Y-79540045D01*
X171668873Y-79617856D01*
X171574623Y-79726626D01*
X171574622Y-79726628D01*
X171514834Y-79857543D01*
X171493091Y-80008775D01*
X171464066Y-80072331D01*
X171458034Y-80078809D01*
X169470910Y-82065935D01*
X169409936Y-82126908D01*
X169409934Y-82126911D01*
X169366819Y-82201589D01*
X169366819Y-82201590D01*
X169347585Y-82273373D01*
X169344500Y-82284885D01*
X169344500Y-91231500D01*
X169324815Y-91298539D01*
X169272011Y-91344294D01*
X169220500Y-91355500D01*
X168752247Y-91355500D01*
X168693770Y-91367131D01*
X168693769Y-91367132D01*
X168627447Y-91411447D01*
X168583132Y-91477769D01*
X168583131Y-91477770D01*
X168571500Y-91536247D01*
X168571500Y-92004500D01*
X168551815Y-92071539D01*
X168499011Y-92117294D01*
X168447500Y-92128500D01*
X163703087Y-92128500D01*
X163636048Y-92108815D01*
X163592087Y-92059771D01*
X163499674Y-91874180D01*
X163376762Y-91711418D01*
X163226041Y-91574019D01*
X163226039Y-91574017D01*
X163052642Y-91466655D01*
X163052635Y-91466651D01*
X162910135Y-91411447D01*
X162862456Y-91392976D01*
X162661976Y-91355500D01*
X162458024Y-91355500D01*
X162257544Y-91392976D01*
X162257541Y-91392976D01*
X162257541Y-91392977D01*
X162067364Y-91466651D01*
X162067357Y-91466655D01*
X161893960Y-91574017D01*
X161893958Y-91574019D01*
X161743237Y-91711418D01*
X161620327Y-91874178D01*
X161529422Y-92056739D01*
X161529417Y-92056752D01*
X161473602Y-92252917D01*
X161454785Y-92455999D01*
X161454785Y-92456000D01*
X161473602Y-92659082D01*
X161529417Y-92855247D01*
X161529422Y-92855260D01*
X161620327Y-93037821D01*
X161743237Y-93200581D01*
X161893958Y-93337980D01*
X161893960Y-93337982D01*
X162063688Y-93443073D01*
X162110324Y-93495101D01*
X162121428Y-93564083D01*
X162093475Y-93628117D01*
X162035340Y-93666873D01*
X161998411Y-93672500D01*
X161751017Y-93672500D01*
X161683978Y-93652815D01*
X161663336Y-93636181D01*
X161156819Y-93129664D01*
X161123334Y-93068341D01*
X161120500Y-93041983D01*
X161120500Y-91536249D01*
X161120499Y-91536247D01*
X161108868Y-91477770D01*
X161108867Y-91477769D01*
X161064552Y-91411447D01*
X160998230Y-91367132D01*
X160998229Y-91367131D01*
X160939752Y-91355500D01*
X160939748Y-91355500D01*
X159100252Y-91355500D01*
X159100247Y-91355500D01*
X159041770Y-91367131D01*
X159041769Y-91367132D01*
X158975447Y-91411447D01*
X158931132Y-91477769D01*
X158931131Y-91477770D01*
X158919500Y-91536247D01*
X158919500Y-93375752D01*
X157000000Y-93375752D01*
X157000000Y-85339005D01*
X160749357Y-85339005D01*
X160769890Y-85586812D01*
X160769892Y-85586824D01*
X160830936Y-85827881D01*
X160930826Y-86055606D01*
X161066833Y-86263782D01*
X161066836Y-86263785D01*
X161235256Y-86446738D01*
X161431491Y-86599474D01*
X161650190Y-86717828D01*
X161885386Y-86798571D01*
X162130665Y-86839500D01*
X162379335Y-86839500D01*
X162624614Y-86798571D01*
X162859810Y-86717828D01*
X163078509Y-86599474D01*
X163274744Y-86446738D01*
X163443164Y-86263785D01*
X163579173Y-86055607D01*
X163679063Y-85827881D01*
X163740108Y-85586821D01*
X163760070Y-85345918D01*
X163760643Y-85339005D01*
X163760643Y-85338994D01*
X163740109Y-85091187D01*
X163740107Y-85091175D01*
X163679063Y-84850118D01*
X163579173Y-84622393D01*
X163443166Y-84414217D01*
X163421557Y-84390744D01*
X163274744Y-84231262D01*
X163078509Y-84078526D01*
X163078507Y-84078525D01*
X163078506Y-84078524D01*
X162859811Y-83960172D01*
X162859802Y-83960169D01*
X162624616Y-83879429D01*
X162379335Y-83838500D01*
X162130665Y-83838500D01*
X161885383Y-83879429D01*
X161650197Y-83960169D01*
X161650188Y-83960172D01*
X161431493Y-84078524D01*
X161235257Y-84231261D01*
X161066833Y-84414217D01*
X160930826Y-84622393D01*
X160830936Y-84850118D01*
X160769892Y-85091175D01*
X160769890Y-85091187D01*
X160749357Y-85338994D01*
X160749357Y-85339005D01*
X157000000Y-85339005D01*
X157000000Y-81578752D01*
X160754500Y-81578752D01*
X160766131Y-81637229D01*
X160766132Y-81637230D01*
X160810447Y-81703552D01*
X160876769Y-81747867D01*
X160876770Y-81747868D01*
X160935247Y-81759499D01*
X160935250Y-81759500D01*
X160935252Y-81759500D01*
X163574750Y-81759500D01*
X163574751Y-81759499D01*
X163589568Y-81756552D01*
X163633229Y-81747868D01*
X163633229Y-81747867D01*
X163633231Y-81747867D01*
X163699552Y-81703552D01*
X163743867Y-81637231D01*
X163743867Y-81637229D01*
X163743868Y-81637229D01*
X163755499Y-81578752D01*
X163755500Y-81578750D01*
X163755500Y-78945920D01*
X175787999Y-78945920D01*
X175816840Y-79090907D01*
X175816843Y-79090917D01*
X175873412Y-79227488D01*
X175873419Y-79227501D01*
X175955548Y-79350415D01*
X175955551Y-79350419D01*
X176060080Y-79454948D01*
X176060084Y-79454951D01*
X176182998Y-79537080D01*
X176183011Y-79537087D01*
X176319582Y-79593656D01*
X176319587Y-79593658D01*
X176319591Y-79593658D01*
X176319592Y-79593659D01*
X176464579Y-79622500D01*
X176464582Y-79622500D01*
X178012420Y-79622500D01*
X178109962Y-79603096D01*
X178157413Y-79593658D01*
X178286842Y-79540047D01*
X178293988Y-79537087D01*
X178293988Y-79537086D01*
X178293995Y-79537084D01*
X178416916Y-79454951D01*
X178521451Y-79350416D01*
X178603584Y-79227495D01*
X178660158Y-79090913D01*
X178682280Y-78979700D01*
X178689000Y-78945920D01*
X178689000Y-78798079D01*
X178660159Y-78653092D01*
X178660158Y-78653091D01*
X178660158Y-78653087D01*
X178660156Y-78653082D01*
X178603587Y-78516511D01*
X178603580Y-78516498D01*
X178521451Y-78393584D01*
X178521448Y-78393580D01*
X178416919Y-78289051D01*
X178416915Y-78289048D01*
X178294001Y-78206919D01*
X178293988Y-78206912D01*
X178157417Y-78150343D01*
X178157407Y-78150340D01*
X178012420Y-78121500D01*
X178012418Y-78121500D01*
X176464582Y-78121500D01*
X176464580Y-78121500D01*
X176319592Y-78150340D01*
X176319582Y-78150343D01*
X176183011Y-78206912D01*
X176182998Y-78206919D01*
X176060084Y-78289048D01*
X176060080Y-78289051D01*
X175955551Y-78393580D01*
X175955548Y-78393584D01*
X175873419Y-78516498D01*
X175873412Y-78516511D01*
X175816843Y-78653082D01*
X175816840Y-78653092D01*
X175788000Y-78798079D01*
X175788000Y-78798082D01*
X175788000Y-78945918D01*
X175788000Y-78945920D01*
X175787999Y-78945920D01*
X163755500Y-78945920D01*
X163755500Y-78939249D01*
X163755499Y-78939247D01*
X163743868Y-78880770D01*
X163743867Y-78880769D01*
X163699552Y-78814447D01*
X163633230Y-78770132D01*
X163633229Y-78770131D01*
X163574752Y-78758500D01*
X163574748Y-78758500D01*
X160935252Y-78758500D01*
X160935247Y-78758500D01*
X160876770Y-78770131D01*
X160876769Y-78770132D01*
X160810447Y-78814447D01*
X160766132Y-78880769D01*
X160766131Y-78880770D01*
X160754500Y-78939247D01*
X160754500Y-81578752D01*
X157000000Y-81578752D01*
X157000000Y-78000000D01*
X167494353Y-78000000D01*
X167514834Y-78142456D01*
X167544274Y-78206919D01*
X167574623Y-78273373D01*
X167668872Y-78382143D01*
X167789947Y-78459953D01*
X167789950Y-78459954D01*
X167789949Y-78459954D01*
X167928036Y-78500499D01*
X167928038Y-78500500D01*
X167928039Y-78500500D01*
X168071962Y-78500500D01*
X168071962Y-78500499D01*
X168210053Y-78459953D01*
X168331128Y-78382143D01*
X168425377Y-78273373D01*
X168485165Y-78142457D01*
X168505647Y-78000000D01*
X168505646Y-77999996D01*
X168506908Y-77991223D01*
X168535932Y-77927667D01*
X168541950Y-77921203D01*
X169099336Y-77363819D01*
X169160659Y-77330334D01*
X169187017Y-77327500D01*
X174043114Y-77327500D01*
X174043116Y-77327500D01*
X174126410Y-77305181D01*
X174201090Y-77262065D01*
X174517235Y-76945920D01*
X175787999Y-76945920D01*
X175816840Y-77090907D01*
X175816843Y-77090917D01*
X175873412Y-77227488D01*
X175873419Y-77227501D01*
X175955548Y-77350415D01*
X175955551Y-77350419D01*
X176060080Y-77454948D01*
X176060084Y-77454951D01*
X176182998Y-77537080D01*
X176183011Y-77537087D01*
X176319582Y-77593656D01*
X176319587Y-77593658D01*
X176319591Y-77593658D01*
X176319592Y-77593659D01*
X176464579Y-77622500D01*
X176464582Y-77622500D01*
X178012420Y-77622500D01*
X178109962Y-77603096D01*
X178157413Y-77593658D01*
X178286842Y-77540047D01*
X178293988Y-77537087D01*
X178293988Y-77537086D01*
X178293995Y-77537084D01*
X178416916Y-77454951D01*
X178521451Y-77350416D01*
X178603584Y-77227495D01*
X178660158Y-77090913D01*
X178689000Y-76945918D01*
X178689000Y-76798082D01*
X178689000Y-76798079D01*
X178660159Y-76653092D01*
X178660158Y-76653091D01*
X178660158Y-76653087D01*
X178616837Y-76548500D01*
X178603587Y-76516511D01*
X178603580Y-76516498D01*
X178521451Y-76393584D01*
X178521448Y-76393580D01*
X178416919Y-76289051D01*
X178416915Y-76289048D01*
X178294001Y-76206919D01*
X178293988Y-76206912D01*
X178157417Y-76150343D01*
X178157407Y-76150340D01*
X178012420Y-76121500D01*
X178012418Y-76121500D01*
X176464582Y-76121500D01*
X176464580Y-76121500D01*
X176319592Y-76150340D01*
X176319582Y-76150343D01*
X176183011Y-76206912D01*
X176182998Y-76206919D01*
X176060084Y-76289048D01*
X176060080Y-76289051D01*
X175955551Y-76393580D01*
X175955548Y-76393584D01*
X175873419Y-76516498D01*
X175873412Y-76516511D01*
X175816843Y-76653082D01*
X175816840Y-76653092D01*
X175788000Y-76798079D01*
X175788000Y-76798082D01*
X175788000Y-76945918D01*
X175788000Y-76945920D01*
X175787999Y-76945920D01*
X174517235Y-76945920D01*
X175957027Y-75506127D01*
X176018348Y-75472644D01*
X176088040Y-75477628D01*
X176113596Y-75490708D01*
X176182993Y-75537077D01*
X176183002Y-75537082D01*
X176183005Y-75537084D01*
X176183007Y-75537084D01*
X176183011Y-75537087D01*
X176319582Y-75593656D01*
X176319587Y-75593658D01*
X176319591Y-75593658D01*
X176319592Y-75593659D01*
X176464579Y-75622500D01*
X176464582Y-75622500D01*
X178012420Y-75622500D01*
X178109962Y-75603096D01*
X178157413Y-75593658D01*
X178293995Y-75537084D01*
X178416916Y-75454951D01*
X178521451Y-75350416D01*
X178603584Y-75227495D01*
X178660158Y-75090913D01*
X178689000Y-74945918D01*
X178689000Y-74798082D01*
X178689000Y-74798079D01*
X178660159Y-74653092D01*
X178660158Y-74653091D01*
X178660158Y-74653087D01*
X178657331Y-74646261D01*
X178603587Y-74516511D01*
X178603580Y-74516498D01*
X178521451Y-74393584D01*
X178521448Y-74393580D01*
X178416919Y-74289051D01*
X178416915Y-74289048D01*
X178294001Y-74206919D01*
X178293988Y-74206912D01*
X178157417Y-74150343D01*
X178157407Y-74150340D01*
X178012420Y-74121500D01*
X178012418Y-74121500D01*
X176464582Y-74121500D01*
X176464580Y-74121500D01*
X176319592Y-74150340D01*
X176319582Y-74150343D01*
X176183011Y-74206912D01*
X176182998Y-74206919D01*
X176060084Y-74289048D01*
X176060080Y-74289051D01*
X175955551Y-74393580D01*
X175955548Y-74393584D01*
X175873419Y-74516498D01*
X175873412Y-74516511D01*
X175816842Y-74653084D01*
X175816840Y-74653092D01*
X175807564Y-74699726D01*
X175775179Y-74761637D01*
X175773628Y-74763215D01*
X175070112Y-75466732D01*
X175008789Y-75500217D01*
X174939098Y-75495233D01*
X174883164Y-75453362D01*
X174858747Y-75387897D01*
X174862225Y-75348610D01*
X174914612Y-75141738D01*
X174914614Y-75141729D01*
X174935141Y-74894005D01*
X174935141Y-74893994D01*
X174914614Y-74646270D01*
X174914612Y-74646261D01*
X174853587Y-74405282D01*
X174753731Y-74177630D01*
X174653434Y-74024116D01*
X173953787Y-74723764D01*
X173942518Y-74681708D01*
X173870110Y-74556292D01*
X173767708Y-74453890D01*
X173642292Y-74381482D01*
X173600235Y-74370212D01*
X174300057Y-73670390D01*
X174300056Y-73670389D01*
X174253229Y-73633943D01*
X174034614Y-73515635D01*
X174034603Y-73515630D01*
X173799493Y-73434916D01*
X173554293Y-73394000D01*
X173305707Y-73394000D01*
X173060506Y-73434916D01*
X172825396Y-73515630D01*
X172825390Y-73515632D01*
X172606761Y-73633949D01*
X172559942Y-73670388D01*
X172559942Y-73670390D01*
X173259765Y-74370212D01*
X173217708Y-74381482D01*
X173092292Y-74453890D01*
X172989890Y-74556292D01*
X172917482Y-74681708D01*
X172906212Y-74723764D01*
X172206564Y-74024116D01*
X172106267Y-74177632D01*
X172006412Y-74405282D01*
X171945387Y-74646261D01*
X171945385Y-74646270D01*
X171924859Y-74893994D01*
X171924859Y-74894005D01*
X171945385Y-75141729D01*
X171945387Y-75141738D01*
X172006412Y-75382717D01*
X172106266Y-75610364D01*
X172206564Y-75763882D01*
X172906212Y-75064234D01*
X172917482Y-75106292D01*
X172989890Y-75231708D01*
X173092292Y-75334110D01*
X173217708Y-75406518D01*
X173259765Y-75417787D01*
X172559942Y-76117609D01*
X172606768Y-76154055D01*
X172606770Y-76154056D01*
X172825385Y-76272364D01*
X172825396Y-76272369D01*
X173060506Y-76353083D01*
X173305707Y-76394000D01*
X173554293Y-76394000D01*
X173799491Y-76353083D01*
X173877705Y-76326232D01*
X173947504Y-76323082D01*
X174007925Y-76358167D01*
X174039786Y-76420350D01*
X174032971Y-76489886D01*
X174005651Y-76531193D01*
X173900662Y-76636182D01*
X173839342Y-76669666D01*
X173812983Y-76672500D01*
X169043116Y-76672500D01*
X168956884Y-76672500D01*
X168901354Y-76687379D01*
X168873589Y-76694819D01*
X168798911Y-76737934D01*
X168798908Y-76737936D01*
X168073664Y-77463181D01*
X168012341Y-77496666D01*
X167985983Y-77499500D01*
X167928036Y-77499500D01*
X167789949Y-77540045D01*
X167668873Y-77617856D01*
X167574623Y-77726626D01*
X167574622Y-77726628D01*
X167514834Y-77857543D01*
X167494353Y-78000000D01*
X157000000Y-78000000D01*
X157000000Y-74894005D01*
X165424859Y-74894005D01*
X165445385Y-75141729D01*
X165445387Y-75141738D01*
X165506412Y-75382717D01*
X165606266Y-75610364D01*
X165706564Y-75763882D01*
X166406212Y-75064234D01*
X166417482Y-75106292D01*
X166489890Y-75231708D01*
X166592292Y-75334110D01*
X166717708Y-75406518D01*
X166759765Y-75417787D01*
X166059942Y-76117609D01*
X166106768Y-76154055D01*
X166106770Y-76154056D01*
X166325385Y-76272364D01*
X166325396Y-76272369D01*
X166560506Y-76353083D01*
X166805707Y-76394000D01*
X167054293Y-76394000D01*
X167299493Y-76353083D01*
X167534603Y-76272369D01*
X167534614Y-76272364D01*
X167753228Y-76154057D01*
X167753231Y-76154055D01*
X167800056Y-76117609D01*
X167100234Y-75417787D01*
X167142292Y-75406518D01*
X167267708Y-75334110D01*
X167370110Y-75231708D01*
X167442518Y-75106292D01*
X167453787Y-75064234D01*
X168153434Y-75763882D01*
X168253731Y-75610369D01*
X168353587Y-75382717D01*
X168414612Y-75141738D01*
X168414614Y-75141729D01*
X168435141Y-74894005D01*
X168435141Y-74893994D01*
X168414614Y-74646270D01*
X168414612Y-74646261D01*
X168353587Y-74405282D01*
X168253731Y-74177630D01*
X168153434Y-74024116D01*
X167453787Y-74723764D01*
X167442518Y-74681708D01*
X167370110Y-74556292D01*
X167267708Y-74453890D01*
X167142292Y-74381482D01*
X167100235Y-74370212D01*
X167800057Y-73670390D01*
X167800056Y-73670389D01*
X167753229Y-73633943D01*
X167534614Y-73515635D01*
X167534603Y-73515630D01*
X167299493Y-73434916D01*
X167054293Y-73394000D01*
X166805707Y-73394000D01*
X166560506Y-73434916D01*
X166325396Y-73515630D01*
X166325390Y-73515632D01*
X166106761Y-73633949D01*
X166059942Y-73670388D01*
X166059942Y-73670390D01*
X166759765Y-74370212D01*
X166717708Y-74381482D01*
X166592292Y-74453890D01*
X166489890Y-74556292D01*
X166417482Y-74681708D01*
X166406212Y-74723764D01*
X165706564Y-74024116D01*
X165606267Y-74177632D01*
X165506412Y-74405282D01*
X165445387Y-74646261D01*
X165445385Y-74646270D01*
X165424859Y-74893994D01*
X165424859Y-74894005D01*
X157000000Y-74894005D01*
X157000000Y-69124000D01*
X157019685Y-69056961D01*
X157072489Y-69011206D01*
X157124000Y-69000000D01*
X158001342Y-69000000D01*
X158068381Y-69019685D01*
G37*
%TD.AperFunction*%
%TD*%
M02*
