%TF.GenerationSoftware,KiCad,Pcbnew,8.0.1*%
%TF.CreationDate,2024-06-21T13:32:41-03:00*%
%TF.ProjectId,bycicle-speedometer-v2,62796369-636c-4652-9d73-706565646f6d,rev?*%
%TF.SameCoordinates,Original*%
%TF.FileFunction,Soldermask,Top*%
%TF.FilePolarity,Negative*%
%FSLAX46Y46*%
G04 Gerber Fmt 4.6, Leading zero omitted, Abs format (unit mm)*
G04 Created by KiCad (PCBNEW 8.0.1) date 2024-06-21 13:32:41*
%MOMM*%
%LPD*%
G01*
G04 APERTURE LIST*
G04 Aperture macros list*
%AMRoundRect*
0 Rectangle with rounded corners*
0 $1 Rounding radius*
0 $2 $3 $4 $5 $6 $7 $8 $9 X,Y pos of 4 corners*
0 Add a 4 corners polygon primitive as box body*
4,1,4,$2,$3,$4,$5,$6,$7,$8,$9,$2,$3,0*
0 Add four circle primitives for the rounded corners*
1,1,$1+$1,$2,$3*
1,1,$1+$1,$4,$5*
1,1,$1+$1,$6,$7*
1,1,$1+$1,$8,$9*
0 Add four rect primitives between the rounded corners*
20,1,$1+$1,$2,$3,$4,$5,0*
20,1,$1+$1,$4,$5,$6,$7,0*
20,1,$1+$1,$6,$7,$8,$9,0*
20,1,$1+$1,$8,$9,$2,$3,0*%
G04 Aperture macros list end*
%ADD10R,1.800000X1.800000*%
%ADD11C,1.800000*%
%ADD12RoundRect,0.250000X0.262500X0.450000X-0.262500X0.450000X-0.262500X-0.450000X0.262500X-0.450000X0*%
%ADD13C,2.000000*%
%ADD14R,2.600000X2.600000*%
%ADD15C,2.600000*%
%ADD16R,1.700000X1.700000*%
%ADD17O,1.700000X1.700000*%
%ADD18R,2.500000X1.100000*%
%ADD19O,2.500000X1.100000*%
%ADD20O,1.100000X2.500000*%
%ADD21RoundRect,0.250000X-0.262500X-0.450000X0.262500X-0.450000X0.262500X0.450000X-0.262500X0.450000X0*%
%ADD22RoundRect,0.250000X-0.250000X-0.475000X0.250000X-0.475000X0.250000X0.475000X-0.250000X0.475000X0*%
G04 APERTURE END LIST*
D10*
%TO.C,D3*%
X179324000Y-92456000D03*
D11*
X181864000Y-92456000D03*
%TD*%
D12*
%TO.C,R7*%
X174545000Y-78740000D03*
X172720000Y-78740000D03*
%TD*%
D10*
%TO.C,D4*%
X188976000Y-92456000D03*
D11*
X191516000Y-92456000D03*
%TD*%
D13*
%TO.C,SW1*%
X173430000Y-74894000D03*
X166930000Y-74894000D03*
X173430000Y-70394000D03*
X166930000Y-70394000D03*
%TD*%
D14*
%TO.C,J1*%
X208280000Y-80264000D03*
D15*
X208280000Y-85344000D03*
%TD*%
D16*
%TO.C,J4*%
X199460000Y-71000000D03*
D17*
X202000000Y-71000000D03*
X204540000Y-71000000D03*
%TD*%
D18*
%TO.C,U1*%
X177238500Y-68872000D03*
D19*
X177238500Y-70872000D03*
X177238500Y-72872000D03*
X177238500Y-74872000D03*
X177238500Y-76872000D03*
X177238500Y-78872000D03*
X177238500Y-80872000D03*
X177238500Y-82872000D03*
X192638500Y-82872000D03*
X192538500Y-80872000D03*
X192638500Y-78872000D03*
X192638500Y-76872000D03*
X192638500Y-74872000D03*
X192638500Y-72872000D03*
X192638500Y-70872000D03*
X192638500Y-68872000D03*
D20*
X179928500Y-84572000D03*
X181928500Y-84572000D03*
X183928500Y-84572000D03*
X185928500Y-84572000D03*
X187928500Y-84572000D03*
X189928500Y-84572000D03*
%TD*%
D10*
%TO.C,D6*%
X208280000Y-92456000D03*
D11*
X210820000Y-92456000D03*
%TD*%
D12*
%TO.C,R9*%
X174545000Y-83820000D03*
X172720000Y-83820000D03*
%TD*%
%TO.C,R8*%
X174545000Y-81280000D03*
X172720000Y-81280000D03*
%TD*%
D21*
%TO.C,R4*%
X169164000Y-81280000D03*
X170989000Y-81280000D03*
%TD*%
D12*
%TO.C,R6*%
X170989000Y-83820000D03*
X169164000Y-83820000D03*
%TD*%
D16*
%TO.C,J2*%
X197104000Y-82555000D03*
D17*
X197104000Y-80015000D03*
%TD*%
D10*
%TO.C,D2*%
X169672000Y-92456000D03*
D11*
X172212000Y-92456000D03*
%TD*%
D10*
%TO.C,D5*%
X198628000Y-92456000D03*
D11*
X201168000Y-92456000D03*
%TD*%
D14*
%TO.C,J3*%
X162255000Y-80259000D03*
D15*
X162255000Y-85339000D03*
%TD*%
D22*
%TO.C,C2*%
X169060500Y-78740000D03*
X170960500Y-78740000D03*
%TD*%
D10*
%TO.C,D1*%
X160020000Y-92456000D03*
D11*
X162560000Y-92456000D03*
%TD*%
M02*
